<?xml version="1.0" encoding="UTF-8" standalone="no"?>
<!DOCTYPE svg PUBLIC "-//W3C//DTD SVG 1.1//EN" "http://www.w3.org/Graphics/SVG/1.1/DTD/svg11.dtd">
<svg width="100%" height="100%" viewBox="0 0 512 512" version="1.1" xmlns="http://www.w3.org/2000/svg" xmlns:xlink="http://www.w3.org/1999/xlink" xml:space="preserve" xmlns:serif="http://www.serif.com/" style="fill-rule:evenodd;clip-rule:evenodd;stroke-linejoin:round;stroke-miterlimit:1.41421;">
    <path d="M256,0C397.29,0 512,114.71 512,256C512,397.29 397.29,512 256,512C114.71,512 0,397.29 0,256C0,114.71 114.71,0 256,0ZM208.381,405.229C208.382,428.188 226.053,446 248.188,446C270.323,446 288.18,428.188 288.18,405.229C288.18,382.271 270.323,364.458 248.188,364.458C226.238,364.458 208.381,382.469 208.381,405.229ZM257.302,66C182.526,66 138.256,110.927 136.954,174.656L202.987,174.656C204.476,145.364 224.751,125.969 252.838,125.969C280.553,125.969 302.875,143.979 302.875,168.521C302.875,193.062 289.668,205.729 258.232,225.719C224.564,246.698 211.172,272.031 214.334,312.802L214.892,329.823L279.437,329.823L279.437,314.188C279.437,288.854 290.412,274.208 322.778,254.219C357.19,232.646 375.046,205.531 375.046,166.344C375.046,107.167 327.056,66 257.302,66Z" style="fill:white;fill-rule:nonzero;"/>
</svg>
