<?xml version="1.0" encoding="UTF-8" standalone="no"?>
<!DOCTYPE svg PUBLIC "-//W3C//DTD SVG 1.1//EN" "http://www.w3.org/Graphics/SVG/1.1/DTD/svg11.dtd">
<svg width="100%" height="100%" viewBox="0 0 448 512" version="1.1" xmlns="http://www.w3.org/2000/svg" xmlns:xlink="http://www.w3.org/1999/xlink" xml:space="preserve" xmlns:serif="http://www.serif.com/" style="fill-rule:evenodd;clip-rule:evenodd;stroke-linejoin:round;stroke-miterlimit:1.41421;">
    <path d="M400,32L48,32C21.5,32 0,53.5 0,80L0,432C0,458.5 21.5,480 48,480L400,480C426.5,480 448,458.5 448,432L448,80C448,53.5 426.5,32 400,32ZM351.1,190.8C351.3,193.6 351.3,196.5 351.3,199.3C351.3,286 285.3,385.9 164.7,385.9C127.5,385.9 93,375.1 64,356.5C69.3,357.1 74.4,357.3 79.8,357.3C110.5,357.3 138.7,346.9 161.2,329.3C132.4,328.7 108.2,309.8 99.9,283.8C110,285.3 119.1,285.3 129.5,282.6C99.5,276.5 77,250.1 77,218.2L77,217.4C85.7,222.3 95.9,225.3 106.6,225.7C88.346,213.558 77.364,193.023 77.4,171.1C77.4,158.9 80.6,147.7 86.3,138C118.6,177.8 167.1,203.8 221.5,206.6C212.2,162.1 245.5,126 285.5,126C304.4,126 321.4,133.9 333.4,146.7C348.2,143.9 362.4,138.4 375,130.9C370.1,146.1 359.8,158.9 346.2,167C359.4,165.6 372.2,161.9 384,156.8C375.1,169.9 363.9,181.5 351.1,190.8Z" style="fill:rgb(0,172,237);fill-rule:nonzero;stroke:rgb(0,172,237);stroke-width:1px;"/>
</svg>
