<?xml version="1.0" encoding="UTF-8" standalone="no"?>
<!DOCTYPE svg PUBLIC "-//W3C//DTD SVG 1.1//EN" "http://www.w3.org/Graphics/SVG/1.1/DTD/svg11.dtd">
<svg width="100%" height="100%" viewBox="0 0 416 416" version="1.1" xmlns="http://www.w3.org/2000/svg" xmlns:xlink="http://www.w3.org/1999/xlink" xml:space="preserve" style="fill-rule:evenodd;clip-rule:evenodd;stroke-linejoin:round;stroke-miterlimit:1.41421;">
    <g transform="matrix(1,0,0,1,-293.933,-1325.27)">
        <g transform="matrix(1,0,0,1,245.933,1277.27)">
            <path d="M256,48C141.1,48 48,141.1 48,256C48,370.9 141.1,464 256,464C370.9,464 464,370.9 464,256C464,141.1 370.9,48 256,48ZM256,446.7C197.4,446.7 144.9,420.1 109.9,378.4C127.7,370.7 172.1,354.7 200.2,346.5C202.4,345.8 202.8,345.7 202.8,335.8C202.8,325.2 201.6,317.7 199,312.2C195.5,304.7 191.3,292 189.8,280.6C185.6,275.7 179.9,266.1 176.2,247.7C173,231.5 174.5,225.6 176.6,220.1C176.8,219.5 177.1,218.9 177.2,218.3C178,214.6 176.9,194.8 174.1,179.5C172.2,169 174.6,146.7 189.1,128.2C198.2,116.5 215.7,102.2 247.1,100.2L264.6,100.2C296.5,102.2 314,116.5 323.1,128.2C337.6,146.7 340,169 338,179.5C335.2,194.8 334.1,214.5 334.9,218.3C335,218.9 335.3,219.5 335.5,220C337.6,225.5 339.2,231.4 335.9,247.6C332.2,266 326.5,275.6 322.3,280.5C320.8,291.9 316.6,304.5 313.1,312.1C309.8,319 306.5,327.2 306.5,335.4C306.5,345.3 306.9,345.4 309.2,346.1C335.9,354 381.9,369.9 402.2,378.2C367.2,420 314.7,446.7 256,446.7Z" style="fill:rgb(87,84,112);fill-rule:nonzero;"/>
        </g>
    </g>
</svg>
