<?xml version="1.0" encoding="UTF-8" standalone="no"?>
<!DOCTYPE svg PUBLIC "-//W3C//DTD SVG 1.1//EN" "http://www.w3.org/Graphics/SVG/1.1/DTD/svg11.dtd">
<svg width="100%" height="100%" viewBox="0 0 512 512" version="1.1" xmlns="http://www.w3.org/2000/svg" xmlns:xlink="http://www.w3.org/1999/xlink" xml:space="preserve" xmlns:serif="http://www.serif.com/" style="fill-rule:evenodd;clip-rule:evenodd;stroke-linejoin:round;stroke-miterlimit:1.41421;">
    <path d="M464,64L48,64C21.5,64 0,85.5 0,112L0,400C0,426.5 21.5,448 48,448L464,448C490.5,448 512,426.5 512,400L512,112C512,85.5 490.5,64 464,64ZM48,96L464,96C472.8,96 480,103.2 480,112L480,153.4C458.1,171.9 426.8,197.4 329.4,274.7C312.5,288.1 279.2,320.4 256,320C232.8,320.4 199.4,288.1 182.6,274.7C85.2,197.4 53.9,171.9 32,153.4L32,112C32,103.2 39.2,96 48,96ZM464,416L48,416C39.2,416 32,408.8 32,400L32,195C54.8,213.7 90.8,242.6 162.7,299.7C183.2,316.1 219.4,352.2 256,352C292.4,352.3 328.3,316.5 349.3,299.7C421.2,242.6 457.2,213.7 480,195L480,400C480,408.8 472.8,416 464,416Z" style="fill:rgb(203,203,203);fill-rule:nonzero;"/>
</svg>
