<?xml version="1.0" encoding="UTF-8" standalone="no"?>
<!DOCTYPE svg PUBLIC "-//W3C//DTD SVG 1.1//EN" "http://www.w3.org/Graphics/SVG/1.1/DTD/svg11.dtd">
<svg width="100%" height="100%" viewBox="0 0 448 512" version="1.1" xmlns="http://www.w3.org/2000/svg" xmlns:xlink="http://www.w3.org/1999/xlink" xml:space="preserve" xmlns:serif="http://www.serif.com/" style="fill-rule:evenodd;clip-rule:evenodd;stroke-linejoin:round;stroke-miterlimit:1.41421;">
    <path d="M400,32L48,32C21.49,32 0,53.49 0,80L0,432C0,458.51 21.49,480 48,480L400,480C426.51,480 448,458.51 448,432L448,80C448,53.49 426.51,32 400,32ZM178.117,262.104C87.429,196.287 88.353,196.121 64,177.167L64,152C64,138.745 74.745,128 88,128L360,128C373.255,128 384,138.745 384,152L384,177.167C359.629,196.136 360.566,196.291 269.883,262.105C259.383,269.76 238.491,288.225 224,287.999C209.497,288.217 188.633,269.772 178.117,262.104ZM384,217.775L384,360C384,373.255 373.255,384 360,384L88,384C74.745,384 64,373.255 64,360L64,217.775C77.958,228.569 97.329,243.011 159.303,287.989C173.465,298.33 197.278,320.134 223.997,319.999C250.884,320.133 275.034,297.958 288.717,287.974C350.675,243.009 370.042,228.568 384,217.775Z" style="fill:rgb(254,183,156);fill-rule:nonzero;stroke:rgb(254,183,156);stroke-width:1px;"/>
</svg>
