<?xml version="1.0" encoding="UTF-8" standalone="no"?>
<!DOCTYPE svg PUBLIC "-//W3C//DTD SVG 1.1//EN" "http://www.w3.org/Graphics/SVG/1.1/DTD/svg11.dtd">
<svg width="100%" height="100%" viewBox="0 0 512 512" version="1.1" xmlns="http://www.w3.org/2000/svg" xmlns:xlink="http://www.w3.org/1999/xlink" xml:space="preserve" xmlns:serif="http://www.serif.com/" style="fill-rule:evenodd;clip-rule:evenodd;stroke-linejoin:round;stroke-miterlimit:1.41421;">
    <path d="M256,0C397.29,0 512,114.71 512,256C512,397.29 397.29,512 256,512C114.71,512 0,397.29 0,256C0,114.71 114.71,0 256,0ZM406.153,283.818C399.622,283.818 394.023,288.822 393.515,295.354C387.662,365.842 328.37,420.807 256.27,420.807C180.354,420.807 118.517,359.395 118.517,283.903C118.517,209.597 178.403,148.864 252.708,146.998C254.659,146.913 256.186,148.44 256.186,150.391L256.186,193.057C256.186,203.745 267.976,210.191 277.052,204.508L358.652,147.422C367.134,142.078 367.134,129.779 358.652,124.435L277.137,68.112C268.061,62.429 256.27,68.876 256.27,79.563L256.27,118.328C256.27,120.194 254.828,121.721 252.962,121.721C164.407,123.502 93.155,195.432 93.155,283.903C93.155,373.476 166.188,446 256.27,446C341.772,446 411.836,380.941 418.792,297.474C419.47,290.095 413.533,283.818 406.153,283.818Z" style="fill:white;fill-rule:nonzero;"/>
</svg>
