<?xml version="1.0" encoding="UTF-8" standalone="no"?>
<!DOCTYPE svg PUBLIC "-//W3C//DTD SVG 1.1//EN" "http://www.w3.org/Graphics/SVG/1.1/DTD/svg11.dtd">
<svg width="100%" height="100%" viewBox="0 0 512 512" version="1.1" xmlns="http://www.w3.org/2000/svg" xmlns:xlink="http://www.w3.org/1999/xlink" xml:space="preserve" xmlns:serif="http://www.serif.com/" style="fill-rule:evenodd;clip-rule:evenodd;stroke-linejoin:round;stroke-miterlimit:1.41421;">
    <path d="M349.32,52.26C328.278,35.495 292.938,0 256,0C219.335,0 184.554,34.769 162.69,52.26C128.104,79.715 53.165,140.158 17.593,169.275C6.463,178.385 -0.002,192.033 0,206.416L0,464C0,490.51 21.49,512 48,512L464,512C490.51,512 512,490.51 512,464L512,206.413C512.002,192.028 505.535,178.379 494.403,169.269C458.832,140.157 383.906,79.715 349.32,52.26ZM464,480L48,480C39.163,480 32,472.837 32,464L32,206.161C32,201.355 34.155,196.808 37.878,193.769C64.16,172.315 159.658,95.526 182.59,77.32C200.211,63.27 232.317,32 256,32C279.686,32 311.789,63.27 329.41,77.32C352.342,95.527 447.846,172.328 474.124,193.788C477.842,196.824 480.002,201.378 480,206.178L480,464C480,472.837 472.837,480 464,480ZM455.247,263.688C459.436,268.844 458.64,276.42 453.471,280.593C430.644,299.019 398.336,324.829 349.315,363.741C328.27,380.541 292.444,416.259 255.997,415.999C219.417,416.263 183.171,380.091 162.679,363.736C113.664,324.828 81.358,299.02 58.53,280.593C53.361,276.42 52.564,268.844 56.754,263.688L61.801,257.476C65.97,252.345 73.505,251.551 78.649,255.704C101.412,274.08 133.663,299.847 182.587,338.682C199.437,352.119 232.788,384.372 256,383.997C279.219,384.368 312.562,352.12 329.413,338.682C378.342,299.843 410.591,274.077 433.351,255.704C438.496,251.551 446.03,252.345 450.199,257.476L455.247,263.688Z" style="fill:rgb(255,101,169);fill-rule:nonzero;"/>
</svg>
