<?xml version="1.0" encoding="UTF-8" standalone="no"?>
<!DOCTYPE svg PUBLIC "-//W3C//DTD SVG 1.1//EN" "http://www.w3.org/Graphics/SVG/1.1/DTD/svg11.dtd">
<svg width="100%" height="100%" viewBox="0 0 512 512" version="1.1" xmlns="http://www.w3.org/2000/svg" xmlns:xlink="http://www.w3.org/1999/xlink" xml:space="preserve" xmlns:serif="http://www.serif.com/" style="fill-rule:evenodd;clip-rule:evenodd;stroke-linejoin:round;stroke-miterlimit:1.41421;">
    <path d="M256,0C397.29,0 512,114.71 512,256C512,397.29 397.29,512 256,512C114.71,512 0,397.29 0,256C0,114.71 114.71,0 256,0ZM423.952,388.443L207.564,171.346C204.819,168.601 200.304,168.601 197.559,171.346L172.148,196.845C169.404,199.59 169.404,204.105 172.148,206.85L388.537,423.947C391.282,426.692 395.797,426.692 398.542,423.947L423.864,398.448C426.697,395.703 426.697,391.188 423.952,388.443ZM401.375,401.104L401.286,401.192C398.542,403.937 394.026,403.937 391.282,401.192L223.147,232.526C220.402,229.781 220.402,225.266 223.147,222.521L223.235,222.433C225.98,219.688 230.495,219.688 233.24,222.433L401.375,391.099C404.12,393.844 404.12,398.359 401.375,401.104ZM200.038,262.452C194.194,262.452 189.413,267.233 189.413,273.077L189.413,301.498C189.413,307.341 194.194,312.123 200.038,312.123C205.881,312.123 210.663,307.341 210.663,301.498L210.663,273.077C210.663,267.233 205.881,262.452 200.038,262.452ZM147.357,241.734C144.524,241.734 141.868,242.885 139.832,244.833L121.327,263.426C119.291,265.463 118.228,268.119 118.228,270.952C118.228,273.785 119.291,276.441 121.327,278.478C123.363,280.514 126.02,281.577 128.853,281.577C131.686,281.577 134.342,280.426 136.379,278.478L154.883,259.885C159.044,255.723 159.044,248.994 154.883,244.833C152.847,242.885 150.191,241.734 147.357,241.734ZM307.967,187.106L279.634,187.106C273.79,187.106 269.01,191.887 269.01,197.73C269.01,203.574 273.791,208.355 279.634,208.355L307.967,208.355C313.81,208.355 318.591,203.574 318.591,197.73C318.591,191.887 313.811,187.106 307.967,187.106ZM124.869,187.106L96.625,187.106C90.781,187.106 86,191.887 86,197.73C86,203.574 90.781,208.355 96.625,208.355L124.957,208.355C130.712,208.355 135.493,203.574 135.493,197.73C135.493,191.887 130.712,187.106 124.869,187.106ZM139.832,154.169C141.868,156.206 144.524,157.268 147.357,157.268C150.191,157.268 152.847,156.117 154.883,154.169C159.044,150.008 159.044,143.279 154.883,139.118L136.379,120.525C134.342,118.488 131.686,117.426 128.853,117.426C126.02,117.426 123.363,118.577 121.327,120.525C117.166,124.686 117.166,131.415 121.327,135.576L139.832,154.169ZM252.807,157.268C255.64,157.268 258.296,156.117 260.333,154.169L278.837,135.576C282.999,131.415 282.999,124.686 278.837,120.525C276.801,118.488 274.145,117.426 271.312,117.426C268.478,117.426 265.822,118.577 263.786,120.525L245.281,139.118C243.245,141.154 242.182,143.81 242.182,146.644C242.182,149.477 243.245,152.133 245.281,154.169C247.317,156.117 249.973,157.268 252.807,157.268ZM200.038,135.665C205.881,135.665 210.663,130.884 210.663,125.04L210.663,96.619C210.663,90.776 205.881,85.995 200.038,85.995C194.194,85.995 189.413,90.776 189.413,96.619L189.413,125.04C189.413,130.884 194.194,135.665 200.038,135.665Z" style="fill:white;fill-rule:nonzero;"/>
</svg>
