<?xml version="1.0" encoding="UTF-8" standalone="no"?>
<!DOCTYPE svg PUBLIC "-//W3C//DTD SVG 1.1//EN" "http://www.w3.org/Graphics/SVG/1.1/DTD/svg11.dtd">
<svg width="100%" height="100%" viewBox="0 0 500 500" version="1.1" xmlns="http://www.w3.org/2000/svg" xmlns:xlink="http://www.w3.org/1999/xlink" xml:space="preserve" xmlns:serif="http://www.serif.com/" style="fill-rule:evenodd;clip-rule:evenodd;stroke-linejoin:round;stroke-miterlimit:1.41421;">
    <g>
        <circle cx="183.187" cy="303.283" r="18.289" style="fill:rgb(45,41,76);"/>
        <path d="M291.578,376.436C287.68,374.691 283.1,376.437 281.354,380.338C274.256,396.196 251.204,397.428 244.308,397.428C216.155,397.428 208.236,381.24 207.832,380.379C206.128,376.504 201.617,374.715 197.712,376.381C193.783,378.062 191.957,382.607 193.635,386.538C194.094,387.614 205.343,412.905 244.308,412.905C279.894,412.905 291.949,394.55 295.48,386.659C297.227,382.758 295.479,378.181 291.578,376.436Z" style="fill:rgb(45,41,76);fill-rule:nonzero;"/>
        <circle cx="312.173" cy="303.283" r="18.29" style="fill:rgb(45,41,76);"/>
        <path d="M459.311,142.734C432.457,144.495 421.151,131.478 394.297,92.425C367.443,53.372 289.711,-17.985 197.843,9.498C197.843,9.498 170.989,16.729 152.615,36.978C152.615,36.978 23.922,33.212 65.045,232.132C45.466,244.034 32.356,265.564 32.356,290.102C32.356,323.394 56.477,351.158 88.159,356.835C92.736,372.186 98.616,386.812 105.72,400.492C115.542,419.409 127.496,436.128 141.25,450.185C155.522,464.772 171.413,476.167 188.481,484.055C206.557,492.409 225.551,496.645 244.933,496.645C264.281,496.645 283.243,492.422 301.291,484.097C318.335,476.236 334.207,464.875 348.469,450.333C362.212,436.318 374.163,419.647 383.991,400.783C391.496,386.383 397.64,370.929 402.336,354.683C412.888,351.319 422.513,345.379 430.404,337.222C442.695,324.516 449.464,307.782 449.464,290.1C449.464,264.158 434.853,241.216 412.799,229.85C412.622,218.764 412.405,207.832 411.904,197.128C421.401,192.998 430.649,188.031 439.521,182.1C439.523,182.102 486.163,140.973 459.311,142.734ZM425.909,290.103C425.909,313.998 406.963,333.457 383.273,334.301C365.014,414.69 309.986,473.089 244.934,473.089C179.765,473.089 124.662,414.486 106.498,333.882C104.425,334.181 102.309,334.341 100.151,334.341C75.72,334.341 55.913,314.535 55.913,290.103C55.913,269.702 69.729,252.535 88.512,247.423L98.161,298.029C98.824,304.166 103.89,308.653 109.478,308.05L109.853,308.01C110.739,307.914 111.58,307.683 112.374,307.361C113.633,307.324 114.818,306.663 115.774,305.022C117.951,302.732 119.158,299.387 118.771,295.805L118.514,286.938C119.166,268.809 117.517,245.363 117.517,241.403C138.661,241.403 168.098,247.551 174.028,186.68C174.028,186.68 274.129,228.284 368.432,210.334L366.837,295.805C366.174,301.943 370.167,307.407 375.755,308.01L376.13,308.05C381.718,308.653 386.784,304.165 387.447,298.029L396.878,248.566C413.817,254.766 425.909,271.018 425.909,290.103Z" style="fill:rgb(45,41,76);fill-rule:nonzero;"/>
    </g>
</svg>
