<?xml version="1.0" encoding="UTF-8" standalone="no"?>
<!DOCTYPE svg PUBLIC "-//W3C//DTD SVG 1.1//EN" "http://www.w3.org/Graphics/SVG/1.1/DTD/svg11.dtd">
<svg width="100%" height="100%" viewBox="0 0 500 500" version="1.1" xmlns="http://www.w3.org/2000/svg" xmlns:xlink="http://www.w3.org/1999/xlink" xml:space="preserve" xmlns:serif="http://www.serif.com/" style="fill-rule:evenodd;clip-rule:evenodd;stroke-linejoin:round;stroke-miterlimit:1.41421;">
    <g>
        <circle cx="194.318" cy="297.884" r="16.545" style="fill:rgb(45,41,76);"/>
        <path d="M292.374,364.062C288.848,362.483 284.705,364.063 283.126,367.591C276.705,381.938 255.851,383.052 249.611,383.052C224.142,383.052 216.978,368.407 216.613,367.629C215.071,364.123 210.99,362.504 207.458,364.012C203.903,365.532 202.252,369.644 203.77,373.2C204.185,374.174 214.361,397.053 249.611,397.053C281.804,397.053 292.711,380.449 295.904,373.31C297.484,369.78 295.903,365.64 292.374,364.062Z" style="fill:rgb(45,41,76);fill-rule:nonzero;"/>
        <circle cx="311.005" cy="297.883" r="16.545" style="fill:rgb(45,41,76);"/>
        <path d="M463.431,319.232C447.2,285.221 439.524,159.025 394.638,98.163C349.425,36.858 282.371,13.547 249.718,34.992C217.075,13.548 150.576,36.859 105.363,98.163C60.476,159.026 52.801,285.222 36.569,319.232C20.337,353.242 -17.538,321.551 18.791,381.842C52.809,438.299 152.567,439.178 165.12,439.061C175.677,448.351 187.068,455.855 199.11,461.42C215.463,468.977 232.645,472.809 250.179,472.809C267.682,472.809 284.836,468.99 301.164,461.457C313.234,455.89 324.651,448.374 335.233,439.064C349.136,439.159 447.481,437.819 481.211,381.841C517.539,321.552 479.663,353.243 463.431,319.232ZM250.178,451.499C191.222,451.499 141.373,398.483 124.942,325.564C123.067,325.835 121.152,325.98 119.201,325.98C97.099,325.98 79.18,308.062 79.18,285.959C79.18,264.298 96.394,246.667 117.886,245.972C209.514,282.627 280.453,210.482 309.149,173.861C323.041,207.186 346.447,242.282 384.206,247.302C401.3,251.857 413.896,267.432 413.896,285.959C413.896,307.575 396.757,325.179 375.326,325.942C358.809,398.667 309.027,451.499 250.178,451.499Z" style="fill:rgb(45,41,76);fill-rule:nonzero;"/>
    </g>
</svg>
