<?xml version="1.0" standalone="no"?>
<!DOCTYPE svg PUBLIC "-//W3C//DTD SVG 20010904//EN"
 "http://www.w3.org/TR/2001/REC-SVG-20010904/DTD/svg10.dtd">
<svg version="1.0" xmlns="http://www.w3.org/2000/svg"
 width="260.000000pt" height="260.000000pt" viewBox="0 0 260.000000 260.000000"
 preserveAspectRatio="xMidYMid meet">
<metadata>
Created by potrace 1.11, written by Peter Selinger 2001-2013
</metadata>
<g transform="translate(0.000000,260.000000) scale(0.100000,-0.100000)"
fill="#000000" stroke="none">
<path d="M804 2153 l-101 -4 -6 -644 c-3 -354 -3 -738 0 -854 l6 -211 249 0
248 0 0 25 c0 25 1 25 88 27 l87 2 -84 3 c-58 3 -88 8 -95 18 -8 10 -40 15
-114 17 -56 2 -102 0 -102 -4 0 -4 35 -9 78 -11 42 -1 6 -4 -81 -4 -121 -2
-156 1 -150 10 4 7 0 7 -10 -2 -16 -12 -17 -9 -17 44 l0 58 22 -19 c20 -17 21
-17 8 -1 -13 18 -10 18 53 16 37 -1 70 1 74 4 3 4 -33 7 -80 7 l-87 0 0 -60
c0 -33 -4 -60 -10 -60 -12 0 -13 117 -3 262 5 85 8 98 24 98 9 0 20 -6 22 -12
4 -10 6 -10 6 0 1 17 107 17 114 0 4 -10 6 -10 6 0 1 6 12 12 26 12 l25 0 0
115 c0 115 0 115 -24 115 -13 0 -27 6 -29 13 -4 10 -6 9 -6 0 -1 -18 -107 -18
-114 0 -4 10 -6 9 -6 0 -1 -7 -9 -13 -20 -13 -16 0 -19 12 -25 112 l-7 111 53
56 53 56 -52 -50 -53 -49 0 52 0 53 53 -3 52 -3 0 -53 c0 -28 3 -52 8 -52 4 0
7 115 7 257 0 141 -2 254 -5 251 -4 -3 -6 -65 -7 -137 l0 -131 -53 0 -53 0 -1
123 c-1 91 2 118 10 107 9 -12 9 -11 3 5 -4 11 -10 77 -12 148 l-4 127 66 0
65 0 4 -67 3 -68 2 73 2 72 128 0 c70 0 278 -3 464 -7 l336 -6 1 -118 2 -119
-203 -3 -203 -2 203 -3 c172 -2 202 -4 202 -17 0 -13 -29 -15 -199 -15 l-198
0 -7 -31 c-3 -17 -6 -34 -6 -38 0 -3 94 -5 210 -3 l209 3 4 -158 3 -158 2 158
2 157 25 0 25 0 0 210 0 210 -128 0 c-71 0 -297 2 -503 4 -206 2 -419 2 -475
-1z m586 -28 l0 -25 -240 0 -240 0 0 25 0 25 240 0 240 0 0 -25z m-515 -620
l0 -50 -50 0 -50 0 -3 39 c-5 60 1 68 55 64 l48 -3 0 -50z m-168 -648 c-1 -67
-3 -9 -3 128 0 138 2 192 3 122 2 -71 2 -183 0 -250z m63 130 l0 -243 -25 -2
-25 -2 0 245 0 245 25 0 25 0 0 -243z m220 -2 l0 -105 -105 0 -105 0 0 105 0
105 105 0 105 0 0 -105z"/>
<path d="M820 1505 c-24 -25 -42 -45 -39 -45 3 0 25 20 49 45 24 25 42 45 39
45 -3 0 -25 -20 -49 -45z"/>
<path d="M1263 2015 c0 -38 2 -53 4 -32 2 20 2 52 0 70 -2 17 -4 1 -4 -38z"/>
<path d="M1745 2040 c3 -5 8 -10 11 -10 2 0 4 5 4 10 0 6 -5 10 -11 10 -5 0
-7 -4 -4 -10z"/>
<path d="M1823 1940 c0 -41 2 -58 4 -37 2 20 2 54 0 75 -2 20 -4 3 -4 -38z"/>
<path d="M1021 1939 c-1 -9 7 -23 17 -30 15 -12 16 -12 6 1 -6 8 -14 22 -17
30 -5 13 -6 12 -6 -1z"/>
<path d="M1073 1893 c9 -2 23 -2 30 0 6 3 -1 5 -18 5 -16 0 -22 -2 -12 -5z"/>
<path d="M1288 1883 c7 -3 16 -2 19 1 4 3 -2 6 -13 5 -11 0 -14 -3 -6 -6z"/>
<path d="M1052 1793 l-82 -4 2 -202 3 -202 78 -3 c57 -2 79 -7 84 -17 6 -17
43 -21 43 -5 0 17 18 11 23 -7 4 -17 5 -17 6 0 1 12 10 17 30 17 20 0 31 -6
34 -17 4 -17 5 -17 6 0 1 20 22 21 284 10 161 -6 167 -7 167 -27 0 -40 -13
-45 -110 -49 l-95 -3 103 -2 103 -2 -3 -92 -3 -93 -100 -1 -100 -2 -6 107 -5
106 -2 -107 -2 -106 -92 0 c-50 0 -102 4 -115 9 -16 6 -22 5 -18 -1 4 -6 -12
-10 -40 -10 -28 0 -44 4 -40 10 3 6 -1 7 -9 4 -12 -5 -16 1 -16 21 0 22 3 26
18 20 11 -4 13 -3 7 3 -5 5 -28 12 -50 15 -22 3 -35 3 -30 1 15 -6 7 -446 -9
-457 -7 -6 -4 -7 7 -3 10 3 71 7 135 8 109 2 111 2 30 5 -49 2 -88 8 -88 13 0
5 39 11 88 13 l87 3 -87 2 -88 2 0 30 0 29 88 4 87 3 -87 2 c-49 1 -88 6 -88
12 0 5 39 11 88 13 l87 3 -87 2 -88 2 0 90 0 90 295 0 295 0 0 174 0 175 53 4
52 3 -52 2 c-47 2 -53 4 -50 23 2 21 -1 22 -188 25 -104 2 -238 4 -297 4
l-108 1 0 35 c0 32 2 35 23 30 l22 -6 -22 11 c-22 11 -23 18 -23 116 0 96 1
103 20 103 17 0 20 -8 23 -82 2 -56 3 -45 3 32 l-1 115 -55 1 c-30 0 -92 -1
-138 -3z m78 -208 l0 -195 -75 0 -75 0 0 195 0 195 75 0 75 0 0 -195z m590
-190 l0 -25 -100 0 -100 0 0 25 0 25 100 0 100 0 0 -25z"/>
<path d="M1033 1763 c15 -2 37 -2 50 0 12 2 0 4 -28 4 -27 0 -38 -2 -22 -4z"/>
<path d="M1011 1724 c0 -11 3 -14 6 -6 3 7 2 16 -1 19 -3 4 -6 -2 -5 -13z"/>
<path d="M1091 1724 c0 -11 3 -14 6 -6 3 7 2 16 -1 19 -3 4 -6 -2 -5 -13z"/>
<path d="M1028 1683 c18 -2 45 -2 60 0 15 2 0 4 -33 4 -33 0 -45 -2 -27 -4z"/>
<path d="M1004 1567 c-3 -8 -4 -45 -2 -83 l3 -69 50 0 50 0 0 80 0 80 -48 3
c-33 2 -49 -1 -53 -11z m94 -69 l-3 -73 -40 0 -40 0 -3 73 -3 72 46 0 46 0 -3
-72z"/>
<path d="M1032 1535 c0 -16 2 -22 5 -12 2 9 2 23 0 30 -3 6 -5 -1 -5 -18z"/>
<path d="M1072 1535 c0 -16 2 -22 5 -12 2 9 2 23 0 30 -3 6 -5 -1 -5 -18z"/>
<path d="M1038 1493 c12 -2 30 -2 40 0 9 3 -1 5 -23 4 -22 0 -30 -2 -17 -4z"/>
<path d="M816 1720 c9 -36 19 -43 20 -15 1 14 -2 23 -6 20 -5 -3 -11 1 -14 7
-3 7 -3 2 0 -12z"/>
<path d="M1650 1676 c0 -2 7 -7 16 -10 8 -3 12 -2 9 4 -6 10 -25 14 -25 6z"/>
<path d="M1389 1643 c-13 -16 -12 -17 4 -4 16 13 21 21 13 21 -2 0 -10 -8 -17
-17z"/>
<path d="M1518 1643 c6 -2 18 -2 25 0 6 3 1 5 -13 5 -14 0 -19 -2 -12 -5z"/>
<path d="M1695 1640 c3 -5 12 -7 20 -3 21 7 19 13 -6 13 -11 0 -18 -4 -14 -10z"/>
<path d="M1762 1585 c0 -16 2 -22 5 -12 2 9 2 23 0 30 -3 6 -5 -1 -5 -18z"/>
<path d="M1521 1584 c0 -11 3 -14 6 -6 3 7 2 16 -1 19 -3 4 -6 -2 -5 -13z"/>
<path d="M1278 1573 c7 -3 16 -2 19 1 4 3 -2 6 -13 5 -11 0 -14 -3 -6 -6z"/>
<path d="M1695 1530 c-4 -6 3 -10 14 -10 25 0 27 6 6 13 -8 4 -17 2 -20 -3z"/>
<path d="M1800 1536 c0 -2 7 -6 15 -10 8 -3 15 -1 15 4 0 6 -7 10 -15 10 -8 0
-15 -2 -15 -4z"/>
<path d="M1518 1523 c6 -2 18 -2 25 0 6 3 1 5 -13 5 -14 0 -19 -2 -12 -5z"/>
<path d="M1400 1510 c-18 -12 -2 -12 25 0 13 6 15 9 5 9 -8 0 -22 -4 -30 -9z"/>
<path d="M1790 1499 c0 -5 9 -9 20 -9 11 0 20 2 20 4 0 2 -9 6 -20 9 -11 3
-20 1 -20 -4z"/>
<path d="M1315 1480 c-13 -6 -15 -9 -5 -9 8 0 22 4 30 9 18 12 2 12 -25 0z"/>
<path d="M1258 1303 c6 -2 18 -2 25 0 6 3 1 5 -13 5 -14 0 -19 -2 -12 -5z"/>
<path d="M1369 1243 c-13 -16 -12 -17 4 -4 16 13 21 21 13 21 -2 0 -10 -8 -17
-17z"/>
<path d="M1040 1215 c13 -14 26 -25 28 -25 3 0 -5 11 -18 25 -13 14 -26 25
-28 25 -3 0 5 -11 18 -25z"/>
<path d="M1285 1150 c-3 -6 1 -7 9 -4 18 7 21 14 7 14 -6 0 -13 -4 -16 -10z"/>
<path d="M1223 1125 c0 -7 6 -11 14 -8 7 3 13 6 13 8 0 2 -6 5 -13 8 -8 3 -14
-1 -14 -8z"/>
<path d="M1680 1131 c0 -6 4 -12 8 -15 5 -3 9 1 9 9 0 8 -4 15 -9 15 -4 0 -8
-4 -8 -9z"/>
<path d="M1388 1123 c18 -2 45 -2 60 0 15 2 0 4 -33 4 -33 0 -45 -2 -27 -4z"/>
<path d="M1050 980 c0 -5 7 -7 15 -4 8 4 15 8 15 10 0 2 -7 4 -15 4 -8 0 -15
-4 -15 -10z"/>
<path d="M1048 923 c6 -2 18 -2 25 0 6 3 1 5 -13 5 -14 0 -19 -2 -12 -5z"/>
<path d="M1382 863 c16 -4 18 -25 21 -206 l2 -202 3 208 2 207 -22 -1 c-17 -1
-18 -3 -6 -6z"/>
<path d="M898 583 c-15 -14 -20 -14 -35 -3 -15 12 -16 12 -6 0 10 -11 10 -17
0 -29 -6 -8 2 -5 20 7 18 13 35 27 38 32 9 15 1 12 -17 -7z"/>
</g>
</svg>
