<?xml version="1.0" standalone="no"?>
<!DOCTYPE svg PUBLIC "-//W3C//DTD SVG 1.1//EN" "http://www.w3.org/Graphics/SVG/1.1/DTD/svg11.dtd">
<svg xmlns="http://www.w3.org/2000/svg">
<defs >
<font id="ShadowsIntoLight" horiz-adv-x="425" ><font-face
    font-family="Shadows Into Light"
    units-per-em="1024"
    panose-1="2 0 0 0 0 0 0 0 0 0"
    ascent="1203"
    descent="-442"
    alphabetic="0" />
<glyph unicode=" " glyph-name="space" horiz-adv-x="461" />
<glyph unicode="!" glyph-name="exclam" horiz-adv-x="141" d="M17 489Q17 581 21 671T31 858Q34 866 38 868T49 871Q59 871 63 866T68 853T70 838T69 823V517Q69 499 72 479L78 439Q82 419 83 402T81 372Q79 361 70 353T49 345Q31 345 24 363T16 405T15 453T17
489ZM80 24V40Q80 45 81 50T85 60T94 64Q114 64 117 55T121 32Q121 18 118 9T94 0Q88 0 85 4T81 13T80 24Z" />
<glyph unicode="&quot;" glyph-name="quotedbl" horiz-adv-x="218" d="M26 795Q30 805 37 806T52 808Q64 808 71 804T77 781Q82 722 86 669T90 560Q90 553 90 545T90 530T84 517T70 511Q63 511 58 527T50 571T43 630T38 693T33 752T26 795ZM141 795Q149 797 156
795T169 788T177 778T180 769V543Q165 543 153 551T141 576V795Z" />
<glyph unicode="#" glyph-name="numbersign" horiz-adv-x="461" d="M143 171Q126 163 114 160T83 157Q70 157 62 160T53 184Q53 192 64 198T89 210T115 219T130 223V377Q113 378 100 382Q88 384 78 389T67 401Q65 406 65 411T63 421Q62 427 62 434H128Q129 442
130 451Q131 467 130 479Q130 481 128 493T123 517T119 541T117 555V570Q117 580 121 588T137 596Q148 596 156 586T169 561T176 528T179 495T181 467T182 454Q187 451 199 452T223 456T246 466T258 479V645Q258 648 263 653T271 658Q274 658 284 653T297 645Q298
631 300 614T305 579T312 543T322 510H400Q400 498 388 491T361 480T334 470T322 454V341Q342 341 359 348T394 365T428 383T466 391Q466 374 456 363T432 345T401 330T369 314T345 292T335 259Q335 228 337 204T347 147L314 112L283 248Q283 248 282 249Q281 249
280 249T278 250Q251 250 230 237T197 202T183 156T194 108L182 94Q173 99 166 111T154 137Q148 153 143 171ZM184 398Q179 383 179 365T181 327T187 287T194 248L271 300V432Q239 432 214 423T184 398Z" />
<glyph unicode="$" glyph-name="dollar" horiz-adv-x="456" d="M220 103Q216 100 207 96T188 87T170 80T157 76Q151 76 149 80T145 88T143 97T142 104Q142 107 142 111T144 115L220 154V159Q220 161 220 163T221 168Q221 187 220 212T215 261T210 305T207 333Q200
332 182 331T141 330T94 334T49 344T16 364T3 397Q4 439 24 470T72 528T133 578T194 627Q193 643 191 671T192 727T207 777T246 798V640Q265 647 278 650T310 653Q320 653 328 649T337 634Q337 621 326 615T300 604T270 598T246 589Q246 584 246 573T245 550V447Q245
414 259 384Q302 379 346 364T425 319Q426 318 426 310V301Q426 270 411 247T373 204T326 166T284 128Q284 125 284 119T283 105T283 92V83Q283 61 287 41T296 -1T305 -42T310 -84Q310 -96 304 -101T284 -115L272 -103L220 103ZM67 409Q67 394 76 386T100 375T130
372T157 371Q159 371 165 371T178 371T189 375T194 384V553Q175 553 153 538T111 500T80 453T67 409ZM256 342Q256 301 260 267T272 192Q273 192 275 192T278 191Q291 191 309 201T346 226T376 260T389 295Q389 314 371 324T328 338T283 342H256Z" />
<glyph unicode="%" glyph-name="percent" horiz-adv-x="461" d="M131 26Q131 28 131 32T132 39Q144 130 159 226T195 419T241 610T300 794Q308 799 315 802T332 806Q339 806 345 801T351 787V783Q351 781 350 780Q318 684 289 584T236 384T190 187T152 -1Q140
-1 136 7T131 26ZM16 589Q16 612 20 633T36 670T65 695T110 705Q122 705 135 699T160 683T177 661T184 634Q184 615 176 588T154 534T120 490T76 472Q53 472 41 485T24 516T17 554T16 589ZM323 255Q323 265 323 288T325 335T338 378T369 397Q387 397 400 388T422
364T435 332T440 301Q440 283 435 260T419 215T392 179T356 164Q339 164 332 174T323 198T321 228T323 255ZM106 666Q90 666 82 646T70 600T66 550V517Q83 517 99 528T129 555T150 591T158 627Q158 637 153 644T140 656T123 663T106 666ZM362 256Q362 247 363 241T376
230Q389 250 395 262T402 294Q402 306 400 313T389 333Q379 328 374 319T366 299T363 277T362 256Z" />
<glyph unicode="&amp;" glyph-name="ampersand" horiz-adv-x="365" d="M186 256Q133 199 100 180T49 169T23 206T16 275Q16 310 28 333T58 369T97 384T136 382T166 364Q176 352 178 337V550Q178 555 184 558T199 564T213 566T222 567L219 361Q246 385 270 400T311
421T336 423T338 405T310 368T245 310Q242 309 240 306T237 287T236 238T235 141Q235 131 226 125T206 116T186 116T178 128L186 256ZM94 346Q73 346 63 326T51 280T54 234T70 210Q69 202 75 206T92 221T116 244T139 270T157 292T163 303Q128 346 94 346Z" />
<glyph unicode="&apos;" glyph-name="quotesingle" horiz-adv-x="159" d="M59 384Q58 392 56 409T52 448T46 493T41 538T36 577T33 602V609Q33 622 38 632T58 642Q74 642 83 629T96 597T102 555T103 511T101 475T99 454V432Q99 417 99 400T98 367T97 346Q82 347
72 358T59 384Z" />
<glyph unicode="(" glyph-name="parenleft" horiz-adv-x="299" d="M16 302Q16 376 34 450T83 593T156 727T247 845Q248 845 251 845T255 846Q266 846 270 838T274 819Q274 817 274 813T274 806Q229 752 191 694T126 572T83 442T67 303Q67 258 78 211T113 123T173
52T261 13Q245 5 235 2T209 -1Q177 -1 151 15T103 57T66 115T38 182T22 247T16 302Z" />
<glyph unicode=")" glyph-name="parenright" horiz-adv-x="247" d="M181 354Q181 411 174 463T149 561T102 649T26 730Q25 732 25 736V742Q25 752 29 760T45 769H48Q50 769 51 768Q101 726 133 683T185 592T212 490T220 371Q220 325 215 273T194 171T154 76T89
0V13Q89 47 103 84T135 165T166 254T181 354Z" />
<glyph unicode="*" glyph-name="asterisk" horiz-adv-x="493" d="M162 265Q119 258 88 256T43 243Q36 248 26 256T16 275Q16 289 33 294T74 302T122 306T162 314L40 389Q30 395 26 403T27 418Q31 424 36 427T49 428L178 379V550Q178 555 184 558T199 564T213 566T222
567L225 389Q237 399 255 417T289 457T318 496T333 525Q337 526 341 524T350 517T359 507T369 499Q378 494 374 484T358 462T330 435T300 408T275 382T265 361Q292 370 316 376T365 387T414 395T470 398Q470 389 467 376T453 358Q443 356 420 351T370 340T319 328T286
319Q283 319 280 319T272 316L420 227Q425 224 425 217T421 202T415 188T411 181L245 275L268 89Q268 77 262 71T249 64T235 65T229 76L206 255Q201 226 185 201T151 156T113 120L82 93Q75 98 71 109T57 129Q53 132 60 144T81 172T109 203T137 233T157 256T162
265Z" />
<glyph unicode="+" glyph-name="plus" horiz-adv-x="478" d="M156 271Q127 271 97 262T43 243Q36 248 26 256T16 275Q16 286 28 292T58 300T97 304T136 308T166 316T178 333V550Q178 555 184 558T199 564T213 566T222 567V346Q279 364 343 381T470 398Q470 389
467 376T453 358Q443 356 420 351T370 340T319 328T286 319Q283 319 278 318T266 314T254 310T247 307Q245 305 240 301T235 294V141Q235 129 231 122T217 114Q210 114 204 117T196 128L171 269Q168 269 165 270Q162 270 160 270T156 271Z" />
<glyph unicode="," glyph-name="comma" horiz-adv-x="115" d="M35 -114Q36 -103 37 -83T38 -42T39 0T41 31Q40 33 38 38T34 50T30 62T29 70Q29 99 43 110T85 121Q94 107 99 93T105 55T98 -5T74 -102L35 -114Z" />
<glyph unicode="-" glyph-name="hyphen" horiz-adv-x="409" d="M13 204Q13 208 18 218T26 230Q70 233 114 249T203 283T289 317T372 333Q377 333 380 328T384 317T386 304V297Q386 293 385 288T384 281L89 192Q87 191 77 191T60 190L52 189Q45 189 36 190T20 194T13 204Z" />
<glyph unicode="." glyph-name="period" horiz-adv-x="132" d="M26 39Q40 54 50 59T76 65Q103 65 103 39Q103 33 100 26T91 11T78 1T65 0Q58 -5 51 -3T37 6T28 20T26 39Z" />
<glyph unicode="/" glyph-name="slash" horiz-adv-x="314" d="M6 -46L238 715H287L39 -86Q26 -86 16 -76T6 -53V-46Z" />
<glyph unicode="0" glyph-name="zero" horiz-adv-x="316" d="M169 552Q212 544 234 517T265 452T276 372T283 295Q283 278 282 250T276 189T264 123T242 62T206 17T154 0Q136 -8 118 9T83 60T55 141T37 239T35 342T54 436T97 511T169 552ZM77 372Q77 265 85 197T107
93T136 49T169 51T202 89T228 153T244 229T245 307Q245 336 242 368T231 428T209 479T174 512Q156 512 139 497T108 461T85 417T76 378V374Q76 373 77 372Z" />
<glyph unicode="1" glyph-name="one" horiz-adv-x="115" d="M47 13Q37 94 34 170T31 321T34 471T34 627Q34 630 39 635T47 640Q50 640 60 635T73 627Q73 607 74 563T76 463T78 346T81 229T84 129T85 64Q85 62 85 50T85 33Q85 26 85 20T84 10T77 3T60 0Q57 0 52 5T47 13Z" />
<glyph unicode="2" glyph-name="two" horiz-adv-x="525" d="M111 39Q140 88 167 139T216 243T251 350T265 463Q255 496 244 514T210 529T150 493T47 397Q38 403 30 410T21 428Q21 429 21 431T22 435Q41 456 65 483T119 534T179 573T247 589Q282 573 297 538T312
456T302 357T273 252T232 153T188 73L456 154Q457 154 461 154T469 155Q474 155 481 154T493 151T503 145T508 135Q472 112 425 97T327 69T228 42T142 11Q129 11 120 14T111 39Z" />
<glyph unicode="3" glyph-name="three" horiz-adv-x="473" d="M170 32Q170 48 187 65T230 101T287 143T343 192T386 249T404 315Q404 340 394 356T367 382T331 394T290 398Q268 400 249 392T210 372T172 348T136 328T102 322T68 340V343Q68 346 69 346L247 550Q276
590 276 612T261 641T215 644T156 626T97 592T56 550Q55 550 53 550T49 549Q37 549 27 559T16 582Q16 596 32 610T73 638T129 664T190 685T246 699T286 705Q312 692 320 672T324 626T306 572T275 517T239 465T209 422Q230 435 254 435T302 436Q328 436 355 429T404
408T440 372T454 320Q454 270 427 224T361 137T277 62T196 0Q187 5 179 13T170 32Z" />
<glyph unicode="4" glyph-name="four" horiz-adv-x="516" d="M7 269Q7 271 8 282T12 306T22 328T43 333Q87 389 121 443T187 552T247 663T311 780Q316 791 322 793T337 795Q343 795 353 793T363 780V397Q397 397 429 405T495 413Q504 384 493 374T461 361T412
357T363 346V26Q363 21 357 16T342 7T325 1T311 -2V337L7 269ZM311 640Q289 605 262 567T208 490T158 412T120 333H132Q152 338 182 346T242 363T291 378L311 384V640Z" />
<glyph unicode="5" glyph-name="five" horiz-adv-x="490" d="M161 25Q161 46 172 67T201 110T239 156T277 207T306 265T318 333Q317 412 252 392T67 242Q62 243 58 245T51 257T45 286T42 339T42 424T47 550Q29 561 23 576T19 608T29 640T47 666T69 680T89 676Q98
676 104 671T114 658T119 643T123 627L430 704Q431 704 436 704T445 705Q454 705 462 701T470 686Q470 676 467 669T456 652Q406 660 360 651T265 627Q205 611 172 598T122 563T101 506T97 409V391Q97 379 97 365T98 337V319Q120 344 140 367T183 409T232 438T293
450Q314 450 328 440T351 415T364 381T368 345Q368 294 352 246T308 154T246 71T175 0Q164 4 163 10T161 25Z" />
<glyph unicode="6" glyph-name="six" horiz-adv-x="384" d="M154 -1Q121 0 99 18T62 63T39 125T28 195T25 262T26 319L115 819Q117 825 128 828T148 832Q159 832 163 824T167 806Q167 805 167 800T166 794Q144 694 129 621T103 497T88 412T79 358T76 327T76 310Q76
252 76 204T89 115Q99 141 110 172T134 235T164 296T202 348T249 384T308 398Q325 398 335 397T351 392T358 378T360 351Q360 329 352 295T330 222T295 143T253 72T205 20T154 -1ZM137 82Q144 60 156 58T182 65T212 95T243 139T271 187T295 230Q318 285 320 313T314
348T285 345T243 312T198 260T159 198T136 135T137 82Z" />
<glyph unicode="7" glyph-name="seven" horiz-adv-x="469" d="M358 686Q319 686 281 681T204 669T128 657T50 652H38Q31 652 26 653T16 659T12 671Q12 678 37 687T103 705T190 724T283 740T362 751T410 756Q436 756 436 730V724Q436 719 435 717Q410 662 387 603T346
481T317 356T306 233Q306 203 307 180T310 133T318 84T333 26Q331 16 327 8T313 -1Q304 -2 293 2T271 27T256 86T254 194T275 367T326 618L358 686Z" />
<glyph unicode="8" glyph-name="eight" horiz-adv-x="341" d="M84 75Q84 104 91 130T110 180L131 229Q142 255 149 282Q133 296 111 316T69 359T36 408T22 461Q14 490 22 523T49 587T93 644T147 688T202 711T252 707T289 667T304 584Q304 549 295 512T271 437T240
365T212 301Q212 278 226 256T257 211T288 162T303 109Q303 79 291 58T259 24T214 5T161 -1Q123 -1 104 18T84 75ZM71 482Q71 455 76 435T93 399T121 367T162 333Q187 358 208 394T243 469T265 544T273 606Q244 589 217 586T176 590T168 614T213 652H175Q152 652
133 633T100 586T79 529T71 482ZM123 76Q130 58 153 51T202 47T247 67T265 110Q265 128 259 147T242 184T217 217T188 243Q171 233 159 213T139 168T127 119T123 76Z" />
<glyph unicode="9" glyph-name="nine" horiz-adv-x="487" d="M372 563Q352 538 329 507T279 444T224 383T167 334T109 304T50 303Q43 303 37 308T25 321T16 339T13 358Q13 390 24 426T56 500T103 572T161 633T228 676T297 692Q334 692 357 681T393 652T412 610T420
558T422 503T422 448Q424 400 428 351T437 253T445 156T449 58Q449 50 449 40T446 21T436 6T416 -1Q406 -1 403 7T397 26Q398 51 397 93T393 185T388 290T381 396T376 491T372 563ZM65 409Q57 376 63 365T87 359T129 382T181 427T236 485T285 547T321 603T337 645Q283
645 242 626T169 575T111 499T65 409Z" />
<glyph unicode=":" glyph-name="colon" horiz-adv-x="123" d="M38 148Q38 163 43 171T65 180Q91 180 91 153Q91 140 82 127T58 114Q43 114 41 125T38 148ZM24 404Q24 417 27 426T51 435Q72 435 75 427T78 405Q78 394 76 383T58 371Q24 371 24 404Z" />
<glyph unicode=";" glyph-name="semicolon" horiz-adv-x="124" d="M30 270Q30 283 39 293T62 303Q72 303 82 295T94 276Q96 266 94 261T86 254T75 251T64 250Q52 250 41 253T30 270ZM35 -114Q36 -103 37 -83T38 -42T39 0T41 31Q40 33 38 38T34 50T30 62T29 70Q29
99 43 110T85 121Q94 107 99 93T105 55T98 -5T74 -102L35 -114Z" />
<glyph unicode="&lt;" glyph-name="less" horiz-adv-x="419" d="M51 366Q52 368 52 369L355 621Q360 626 363 632T370 643T379 650T394 649Q408 644 409 633T407 608Q406 607 406 605Q406 604 405 603Q372 557 340 528T272 474T199 423T116 357L123 341Q124 339
145 326T194 295T252 259T301 230Q305 228 316 223T341 213T367 204T384 198Q387 187 388 180T385 164Q381 152 369 143T345 130Q330 144 301 162T237 200T166 243T102 286T59 326T49 363L51 366Z" />
<glyph unicode="=" glyph-name="equal" horiz-adv-x="444" d="M22 115Q22 119 26 129T34 141Q85 145 134 159T231 190T329 218T430 231Q430 203 407 189T354 168T295 159T252 153Q241 150 213 142T155 123T97 103T60 89Q49 94 40 98Q33 103 28 107T22 115ZM45
298Q45 300 46 307T48 317Q58 319 81 322T133 328L194 336Q227 340 255 344T307 351T342 355Q344 355 352 355T369 355T386 356T396 357Q396 344 376 332T324 310T255 292T182 278T119 269T79 265Q45 265 45 298Z" />
<glyph unicode="&gt;" glyph-name="greater" horiz-adv-x="461" d="M47 148Q50 168 76 194T139 249T216 308T288 365T336 418T341 461L61 612Q58 615 53 624T48 638Q48 642 50 647T57 658T65 668T74 676L380 499Q404 483 401 456T377 395T320 326T246 256T169
193T104 145T63 119T61 122Q50 122 49 132T47 148Z" />
<glyph unicode="?" glyph-name="question" horiz-adv-x="456" d="M180 39Q180 56 186 61T204 66Q221 66 233 54T245 25Q245 11 235 6T211 0Q205 0 200 4T190 15T183 28T180 39ZM127 443Q127 483 146 516T194 578T256 636T318 694T365 757T385 832Q385 855 373
866T343 881T304 886T265 885Q233 885 204 872T149 845T96 818T43 805Q31 805 22 808T13 832Q13 844 30 856T73 879T132 901T196 919T251 930T289 935Q311 935 337 932T385 919T421 892T436 846Q436 795 410 745T348 651T272 568T204 499Q192 493 189 481T189 455T203
429T230 410T268 405T314 423L333 384Q312 368 284 363T230 357Q211 357 193 363T160 380T136 407T127 443Z" />
<glyph unicode="@" glyph-name="at" horiz-adv-x="968" d="M26 294Q26 359 48 431T109 573T202 706T319 817T450 893T589 922Q648 922 697 895T782 823T838 725T858 616Q858 567 850 519T819 431T760 367T662 343Q613 343 586 353T545 381T528 418T521 457T511
491T487 512Q470 483 445 446T389 374T323 317T248 293Q225 293 214 307T203 345Q203 373 217 410T256 486T311 565T377 635T446 685T512 704Q553 704 565 688T578 638V625Q578 618 576 612T568 602T550 602V589Q550 580 550 570T549 550V537Q549 508 553 480T570
431T604 396T661 382Q711 382 740 402T784 454T804 525T808 602Q808 646 796 694T759 781T694 845T602 871Q536 871 473 848T352 783T247 688T163 573T108 446T88 318Q88 242 108 191T168 108T264 64T394 50Q515 50 622 89T832 192Q845 200 852 211T865 233T881
251T907 258Q940 258 946 247T934 204Q872 160 806 123T669 58T523 16T372 0Q301 0 238 16T128 67T54 158T26 294ZM512 652Q484 652 455 637T396 595T342 536T298 468T267 400T256 340Q274 340 292 350T328 376T360 407T384 435Q391 445 408 470T444 524T478 578T499
615H545Q545 630 537 641T512 652Z" />
<glyph unicode="A" glyph-name="A" horiz-adv-x="400" d="M26 26Q29 40 31 62T36 120T44 209T57 338T75 516T103 755Q104 765 112 767T128 769Q139 769 146 761T158 743T169 722T180 704Q190 681 200 651T223 587T247 519T271 452T293 392T313 346Q324 347 344
354T387 369T432 380T469 381T488 363T481 319Q474 319 468 321T456 326T444 331T429 334Q424 334 407 329T369 317T334 304T319 294L388 23L362 -15Q345 14 334 51T312 126T292 196T265 251Q244 241 215 234T159 217T113 189T89 141Q87 129 86 109T82 71Q79 49
77 26H26ZM141 615L139 598Q138 581 136 559T132 513T128 473Q123 417 118 363T112 251Q131 251 152 256T194 269T230 290T256 319Q248 354 239 391T218 467T194 543T166 615Q165 616 159 619T141 615Z" />
<glyph unicode="B" glyph-name="B" horiz-adv-x="550" d="M39 615Q31 630 28 641T25 667Q25 672 25 677T28 686T36 692T51 691Q57 689 63 684T74 670T83 653T89 640Q112 658 139 676T196 709T258 733T319 742Q329 742 343 740T369 733T390 720T399 698Q402 674
394 650T371 602T338 557T301 515T267 478T243 448Q284 475 331 487T427 500Q442 500 459 499T492 491T517 474T527 443Q527 423 509 388T461 310T396 224T327 145T268 87T230 64L204 76Q209 95 229 121T276 175T335 234T395 294T444 350T471 400T466 438T417 462Q378
462 335 449T253 410T184 351T139 273Q139 245 143 218T153 165T162 111T167 57Q167 37 164 24T139 11Q137 11 133 11T128 13L39 615ZM103 552Q103 515 108 474T128 397Q143 410 165 431T212 478T260 531T303 585T334 633T346 671Q346 683 339 687T321 691Q297
691 260 681T188 653T128 610T103 552Z" />
<glyph unicode="C" glyph-name="C" horiz-adv-x="499" d="M25 179Q25 211 31 266T51 384T85 511T132 628T195 713T274 746Q299 746 316 737T345 713T362 678T368 635Q350 635 339 644T319 665T301 685T275 695Q243 695 216 665T167 587T128 483T100 371T82 272T76
205Q76 176 79 149T92 99T121 64T175 50Q215 50 254 76T328 139T387 219T423 294Q425 295 432 295T441 296Q453 296 463 294T474 275Q468 243 446 208T394 138T328 75T258 26T195 -1T148 0Q115 0 92 18T54 64T32 122T25 179Z" />
<glyph unicode="D" glyph-name="D" horiz-adv-x="568" d="M161 20Q161 40 186 71T248 143T329 230T410 327T472 430T497 534Q497 561 482 580T444 614T391 636T331 648T274 654T228 656Q223 656 215 656T199 655T183 653T175 652L162 640Q162 638 162 623T161
589T160 550V519Q160 418 167 319T175 118Q175 112 175 105T175 92T170 81T156 76Q150 76 144 79T137 89L98 615Q95 613 88 610T72 602T57 594T47 589Q46 589 44 589T40 588Q35 588 29 590T22 602Q22 617 28 626T45 644T68 660T90 680T107 712T114 760Q134 760
139 753T145 737T147 718T162 704Q190 705 229 704T312 698T398 681T474 650T527 600T545 525Q532 448 496 377T410 241T303 115T188 0Q187 0 185 0T182 -1Q173 -1 167 5T161 20Z" />
<glyph unicode="E" glyph-name="E" horiz-adv-x="486" d="M72 26Q72 107 73 185T72 340T64 494T46 652Q46 654 44 660T39 672T35 684T33 691Q33 696 36 703T45 716T58 727T72 730Q84 727 91 715T103 689T108 660T110 640Q140 656 177 674T254 708T333 734T408
745Q408 736 405 729T391 717L110 576V537Q111 526 112 499T116 442T119 384T122 346L328 461L333 467Q338 473 346 478T362 483T379 473Q379 455 361 438T316 404T258 371T199 340T154 310T136 282V89Q149 84 172 93T225 120T285 159T345 202T400 238T443 257Q453
257 461 253T469 237Q469 225 455 218Q420 197 375 166T282 103T190 46T111 12Q98 12 90 14T72 26Z" />
<glyph unicode="F" glyph-name="F" horiz-adv-x="439" d="M30 660Q30 670 36 674T51 681T70 683T87 684V589Q153 608 195 627T270 663T335 693T414 717Q421 717 424 710T427 697Q427 686 414 679L93 525L106 243Q180 284 231 313T315 361T366 390T394 404L405
409Q407 410 408 410Q410 410 411 407T412 398V386Q412 381 414 377Q409 371 385 355T326 319T254 276T182 233T128 199T106 179V26Q106 13 102 6T87 -1Q76 -1 68 24T54 90T44 186T37 298T33 414T31 521T30 607V660Z" />
<glyph unicode="G" glyph-name="G" horiz-adv-x="606" d="M456 179Q427 154 396 125T329 70T255 29T175 12Q153 12 127 17T79 36T40 68T22 115Q18 153 30 208T68 325T127 447T203 557T289 637T382 667Q389 667 397 666T413 661T426 652T431 634Q431 629 409 621T357
604T301 584T265 563Q229 517 197 469T139 370T96 265T72 154Q72 126 83 111T111 88T152 79T198 77Q238 81 278 104T353 163T418 242T467 333H311Q311 345 325 355T362 373T413 389T468 401T518 408T554 410H565Q572 410 578 408T586 401T584 384Q583 382 578 378T566
370T553 363T545 358Q524 316 515 259T505 141T509 20T521 -89L482 -115Q470 -103 463 -81T452 -32T449 25T450 83T453 137T456 179Z" />
<glyph unicode="H" glyph-name="H" horiz-adv-x="435" d="M326 346Q315 338 288 323T229 289T170 255T131 230Q109 213 101 191T93 144T98 91T105 35Q105 21 96 9T73 -3Q67 -3 60 0T53 11L30 652Q30 658 34 668T42 679Q45 679 50 678T62 675T73 670T81 665Q85
625 86 573T88 468T93 366T106 282Q149 300 187 316T253 353T297 404T312 481Q312 506 311 525T307 562T299 602T285 652Q283 670 291 675T310 680Q323 680 330 674T341 658T347 637T349 615Q351 599 354 567T360 495T368 409T377 324T383 252T388 204Q391 166
396 129T401 53V37Q401 29 400 22T393 9T375 0Q357 13 354 29T349 64Q348 75 347 97T344 147T339 205T334 263T329 313T326 346Z" />
<glyph unicode="I" glyph-name="I" horiz-adv-x="157" d="M52 747Q52 755 57 758T70 762T86 762T101 761Q106 749 109 714T116 628T121 516T124 393T126 270T127 161T128 76V31Q127 11 120 8T85 12Q82 13 80 42T77 118T75 227T73 354T71 484T67 602T62 694T52 747Z" />
<glyph unicode="J" glyph-name="J" horiz-adv-x="380" d="M13 141Q13 144 18 149T26 154Q39 125 55 93T92 34T142 -10T206 -28Q238 -28 262 -11T295 39Q301 121 294 202T276 363T254 524T242 687Q242 692 242 699T243 714T249 726T263 731Q274 731 282 717Q307
571 327 420T347 121Q347 81 342 47T320 -11T276 -50T204 -65Q166 -65 132 -48T71 -1T29 66T13 141Z" />
<glyph unicode="K" glyph-name="K" horiz-adv-x="537" d="M26 665Q28 676 37 684T58 692Q64 692 69 688T79 677T86 664T89 652L128 307Q134 313 153 345T199 421T256 512T316 593T368 642T404 637Q359 565 325 516T266 431T223 370T192 321T170 272T153 211Q153
207 155 205T169 199T205 193T271 189T377 186T534 185Q534 170 527 156T499 141H141Q149 113 152 86T156 31Q156 13 150 13T121 12Q121 12 119 12T115 13Q113 20 109 38T101 76T94 114T89 141Q88 151 85 184T78 260T70 352T62 444T55 520L51 563Q51 566 50 574T46
593T42 613T39 627Q39 628 37 634T32 646T28 657T26 665Z" />
<glyph unicode="L" glyph-name="L" horiz-adv-x="550" d="M49 39Q47 166 45 256T40 409T36 507T32 566T30 597T29 616Q29 633 39 637T64 642Q81 642 90 636T100 602L119 64Q120 64 129 66T150 72T175 80T196 89Q208 94 232 105T286 130T349 159T413 188T467 213T503
230H515Q521 230 527 229T537 224T542 212Q542 202 539 195T529 179Q470 168 414 139T302 79T190 24T74 0Q49 0 49 39Z" />
<glyph unicode="M" glyph-name="M" horiz-adv-x="699" d="M542 665Q538 667 531 643T511 580T486 493T456 396T424 307T392 241T362 215T337 243Q329 257 315 287T281 356T241 436T202 515T168 583T145 627Q133 649 124 662T94 676Q94 606 102 522T119 352T137
183T145 28Q149 19 143 11T125 -1T100 -2T77 15Q68 104 68 196T66 382T58 568T30 755Q29 773 36 777T54 782Q78 782 97 771T133 742T161 703T184 665Q192 652 206 624L238 559Q256 523 275 484T313 409T346 346T369 306Q373 306 376 309T384 326T399 369T426 449T468
578T529 768Q531 773 542 777T562 781Q571 781 574 775T580 755Q589 670 594 578T609 391T631 203T669 26L600 -1L542 665Z" />
<glyph unicode="N" glyph-name="N" horiz-adv-x="554" d="M31 615V663Q43 663 58 655T87 636T113 612T132 589L427 192Q430 209 432 255T435 359T432 482T425 601T415 695T400 742Q400 757 405 770T427 783Q443 783 453 765T468 725T475 681T478 652Q479 634 480
598T482 515T484 416T487 318T489 235T491 179Q491 166 495 155T504 133T513 111T517 88Q517 68 503 59T470 49Q460 49 453 51T441 60T436 77T439 103Q428 116 405 145T354 211T293 288T232 364T180 430L146 473Q144 476 139 481L115 505Q110 510 107 512Q103 454
108 396T121 279T138 164T147 48Q147 32 144 20T120 0Q100 7 93 26T94 64L31 615Z" />
<glyph unicode="O" glyph-name="O" horiz-adv-x="392" d="M15 214Q27 388 65 497T153 654T258 686T357 594Q372 544 376 482T375 357T352 232T306 122T237 40T145 -1Q108 -1 83 22T43 78T22 148T15 214ZM68 220Q68 195 70 168T82 119T109 82T159 67Q194 67 223
99T273 182T306 295T321 416T316 526T286 601T231 622T148 567Q134 526 120 483T95 395T76 306T68 220Z" />
<glyph unicode="P" glyph-name="P" horiz-adv-x="521" d="M103 13Q82 171 77 339T77 665Q68 660 61 656T44 652Q37 652 31 658T25 673V676Q25 677 26 679Q34 688 45 710T70 753T95 791T116 808Q125 808 129 804T137 793T143 780T154 768Q184 786 220 799T292 817T363
819T426 802T474 763T500 700Q499 651 472 608T404 529T316 466T230 418T165 386T141 372V13Q141 5 134 2T121 -1Q110 -1 103 13ZM141 704Q138 675 134 641T127 570T127 498T141 435Q184 454 231 477T321 531T398 597T450 679Q450 703 433 720T390 748T339 763T295
768Q285 768 263 763T216 749T170 728T141 704Z" />
<glyph unicode="Q" glyph-name="Q" horiz-adv-x="525" d="M29 335Q29 351 32 389T42 477T63 577T93 672T134 742T189 769Q193 769 200 769T214 765T222 756T221 742Q238 751 250 755T274 763T296 768T323 769Q358 769 383 748T426 691T454 610T468 514T471 412T463
315T447 232T426 172V168Q426 167 427 166L490 51Q490 50 490 46T491 40Q491 12 464 12H458Q454 12 452 13Q449 17 442 28T427 52T411 74T400 89Q399 91 395 96T388 103Q374 85 358 67T323 34T282 9T236 -1Q193 -1 162 15T107 57T69 118T45 190T33 265T29 335ZM79
326Q79 305 81 277T89 218T105 157T132 104T171 65T228 50Q250 50 274 59T318 83T350 120T363 166V174Q363 179 362 179L273 372L323 397L388 243Q388 242 390 241T393 240Q403 240 409 254T420 291T425 338T427 387T427 426V444Q427 465 427 494T424 553T414 613T394
666T361 704T311 719Q264 721 231 707T174 669T136 612T112 545T95 475T81 409Q81 405 81 394T80 369T79 343V326Z" />
<glyph unicode="R" glyph-name="R" horiz-adv-x="516" d="M40 812Q41 812 47 811T60 810T73 808T81 807Q86 807 96 806T106 794V706Q123 710 145 724T197 754T264 779T349 784Q423 769 456 749T491 704T471 651T411 594T329 535T240 479T160 427T106 384Q122 377
152 362T219 328T295 288T370 250T433 219T473 201Q483 196 492 192Q499 187 505 183T512 175Q512 171 510 164T502 151T492 141T481 136Q479 136 477 136T473 137Q471 138 460 143T436 156T412 168T397 175Q386 179 362 190T307 216T242 248T178 280T123 306T87
319V13H42L40 812ZM106 640Q104 622 102 598T98 548T94 496T92 448Q96 453 120 465T178 495T251 535T326 580T387 627T421 669T414 705T349 730Q322 732 288 727T219 710T154 681T106 640Z" />
<glyph unicode="S" glyph-name="S" horiz-adv-x="554" d="M121 47Q123 57 146 66T203 85T278 107T357 134T426 168T473 212Q473 227 454 235T402 248T328 257T243 267T158 283T84 310T32 355T12 421Q12 460 29 498T74 573T139 640T216 694T295 730T369 743Q378
743 388 743T405 743T418 735T423 717Q423 688 404 676T358 663L319 691Q296 691 269 678T213 644T157 594T110 536T77 476T64 422Q64 387 83 366T135 332T210 313T295 303T380 296T454 283T506 259T526 218Q537 202 522 182T474 141T397 100T305 63T214 35T139
20Q130 20 124 26T121 47Z" />
<glyph unicode="T" glyph-name="T" horiz-adv-x="610" d="M301 627Q269 627 237 621T172 608T108 594T43 588Q33 588 23 590T12 608Q12 618 20 628T39 640L307 679Q308 683 310 691T315 708T325 723T339 730Q351 730 358 724T370 711T379 697T389 691H397Q407
692 429 694T479 700T540 706T601 712T652 717T684 722Q687 722 698 722T715 723Q715 704 695 692T643 671T573 658T498 650T431 645T384 640Q380 569 387 492T406 337T428 182T438 35Q442 21 442 13T436 2T421 -1T397 0Q387 36 380 84T366 188T355 303T344 420T333
531T319 627H301Z" />
<glyph unicode="U" glyph-name="U" horiz-adv-x="461" d="M364 268Q354 231 338 187T297 103T238 38T159 11Q124 11 103 25T69 64T52 118T44 178Q43 188 42 218T40 290T38 379T35 467T32 539T31 580Q30 590 32 595T39 603T50 606T62 607H70Q76 607 81 606T90 602T94
592V166Q94 148 99 130T115 97T140 71T174 61Q212 64 239 101T287 196T320 320T343 449T360 559T377 626Q396 643 407 635T423 609T430 571T428 541Q428 474 422 408T415 274Q415 231 419 188T428 102T437 17T441 -68Q441 -76 440 -84T436 -100T426 -112T409 -117Q409
-117 407 -117T402 -116L364 268Z" />
<glyph unicode="V" glyph-name="V" horiz-adv-x="537" d="M12 582Q12 595 23 598T45 602Q57 602 64 595T76 576L307 89L461 730Q463 737 468 739T481 742Q490 742 502 735T512 717L358 13Q350 -2 335 0T305 11T277 33T256 51L13 576Q12 577 12 579V582Z" />
<glyph unicode="W" glyph-name="W" horiz-adv-x="900" d="M17 589Q19 594 25 600T38 614T53 627T67 637Q75 631 80 622T94 592T113 533T144 434T191 282T261 64Q265 67 275 96T301 168T333 265T368 373T400 477T427 563Q430 577 431 590T436 615T446 633T472 641Q486
647 498 627T522 569T549 481T580 375T619 266T670 166L811 742Q813 750 818 755T831 760T847 753T862 730L722 166Q722 153 719 136T711 102T700 73T685 59T666 65T645 103Q589 202 545 309T465 537L337 115Q331 71 320 45T295 5T267 -11T242 -13T226 -7T222 0Q199
31 183 74T153 169T126 277T99 389T64 496T17 589Z" />
<glyph unicode="X" glyph-name="X" horiz-adv-x="473" d="M354 26Q343 53 330 85T300 150T265 214T226 269Q216 261 203 244T176 206T147 159T118 112T93 70T73 39L22 64Q38 94 63 128T114 199T160 273T188 346L60 615Q59 616 59 622T58 632Q58 649 63 658T87
667Q89 667 93 667T98 665L226 397Q231 405 244 427T276 480T314 546T353 614T387 675T412 718Q422 718 433 716T445 697V693Q445 691 444 691L255 340L406 51Q407 49 407 43T408 32Q408 27 408 20T404 8T396 0T380 0Q375 2 365 12T354 26Z" />
<glyph unicode="Y" glyph-name="Y" horiz-adv-x="495" d="M192 25Q192 61 203 95T227 165T249 234T256 307Q227 339 192 376T123 454T60 538T13 627Q12 628 12 630V634Q12 646 21 650T40 654Q66 623 95 584T156 505T219 431T282 372H295Q299 379 309 406T333 472T364
556T394 646T419 730T435 794Q436 796 441 796Q456 796 465 783T473 755Q446 660 429 599T400 500T380 438T364 393T346 347T322 279T285 170T230 0Q229 0 225 0T218 -1Q192 -1 192 25Z" />
<glyph unicode="Z" glyph-name="Z" horiz-adv-x="687" d="M22 51Q22 52 24 56T40 77T80 129T158 228T283 389T469 627V640Q418 646 365 649T257 654T150 655T47 652Q40 657 39 672T37 695Q37 697 75 697T171 698T296 698T422 697T521 696T563 695L571 652L111
76H148Q174 76 203 76T259 76H388Q431 76 473 76T558 80T649 89Q659 85 660 78T662 64V50Q662 44 660 38T654 29T641 26Q576 18 502 16T352 12T205 9T73 0Q72 0 67 0T59 -1Q40 -1 31 16T22 51Z" />
<glyph unicode="[" glyph-name="bracketleft" horiz-adv-x="482" d="M26 1063V1067Q26 1072 26 1076T25 1085V1092Q25 1099 25 1107T29 1122T40 1130T65 1126Q76 1127 98 1128T150 1130T211 1132T272 1135T324 1137T358 1139Q361 1139 369 1139T386 1140H413Q413
1125 393 1115T340 1099T270 1091T198 1087T137 1086T103 1088L89 1075Q89 1074 89 1065T88 1044T87 1021T86 1003Q86 913 93 823T110 643T129 463T141 282Q142 261 143 232T145 172T148 111T150 56T153 15L154 0L166 -26Q167 -27 177 -27T193 -28Q223 -28 261
-21T335 -6T402 12T448 26Q461 -1 453 -17T423 -26L141 -103Q134 -104 128 -100T116 -90T107 -76T103 -64V192L26 1063Z" />
<glyph unicode="\" glyph-name="backslash" horiz-adv-x="568" d="M13 998Q17 1008 22 1017Q26 1024 30 1030T39 1037Q45 1037 59 1028T76 1011L550 39Q551 37 551 32V26Q551 9 543 4T519 -1Q508 -1 500 0T487 13L103 858L13 998Z" />
<glyph unicode="]" glyph-name="bracketright" horiz-adv-x="525" d="M218 -64L409 -13L422 0Q422 1 422 6T423 19T424 34V46Q424 183 417 319T401 591T388 865T384 1139Q366 1148 358 1150T335 1153Q301 1153 268 1149T202 1139T136 1130T70 1125H59Q51 1125
42 1125T24 1126H13Q10 1129 5 1138T0 1152Q0 1163 12 1169T45 1180T89 1186T136 1189T177 1190T204 1191Q219 1192 244 1194T298 1198T358 1202T413 1203H427Q436 1203 444 1201T457 1194T462 1179Q454 1137 450 1070T446 920T449 743T457 554T467 366T479 195T490
55T499 -40Q499 -49 483 -57T441 -71T384 -84T325 -94T276 -100T248 -103Q237 -103 224 -95T204 -77L218 -64Z" />
<glyph unicode="^" glyph-name="asciicircum" horiz-adv-x="400" d="M28 694Q28 696 28 698T29 702L156 939Q157 943 167 949T188 955Q189 955 191 955T193 954L357 763Q377 759 380 753T384 737Q384 733 383 727T377 715T367 705T350 701H346Q345 701 345 702L205
877Q200 886 186 886H181L67 687Q66 685 61 682T54 679Q36 679 32 683T28 694Z" />
<glyph unicode="_" glyph-name="underscore" horiz-adv-x="627" d="M13 39Q13 41 35 48T96 66T187 90T300 118T428 148T563 179Q564 180 569 180H577Q594 180 598 171T603 146Q603 134 595 127T566 112T507 98T409 78T265 47T65 0H58Q52 0 44 2T28 10T16 23T13 39Z" />
<glyph unicode="`" glyph-name="grave" horiz-adv-x="159" d="M98 605Q88 616 75 629T50 658T28 689T17 717V724Q17 737 22 747T42 757Q63 734 83 710T114 665T124 627T98 605Z" />
<glyph unicode="a" glyph-name="a" horiz-adv-x="375" d="M310 26Q305 52 302 88T294 162T285 233T268 287Q217 183 178 124T110 39T60 14T27 32T9 75T1 125Q1 147 11 187T38 274T78 371T129 460T185 526T243 552Q286 559 306 534T314 448Q314 382 319 335T331
245T343 155T349 42Q349 30 347 22T322 13Q319 13 315 18T310 26ZM256 473Q245 489 226 476T186 433T143 361T102 276T69 195T50 131Q50 95 61 91T88 102T124 148T164 212T201 278T229 330Q238 351 243 369T251 403T255 437T256 473Z" />
<glyph unicode="b" glyph-name="b" horiz-adv-x="453" d="M42 7Q37 86 38 175T43 367T48 590T49 854Q60 854 72 855T93 856T109 850T116 832Q116 795 114 747T107 641T101 517T98 378Q133 424 163 453T220 499T273 521T324 524Q353 524 371 508T400 468T414 415T418
357Q418 337 416 315T404 265T377 210T325 149T242 83T119 13Q95 6 81 5T58 3T46 5T42 7ZM85 67Q90 70 112 80T164 108T229 149T293 205T344 277T369 365Q369 379 365 395T353 425T331 448T300 458Q263 458 231 438T171 388T123 324T89 260L85 67Z" />
<glyph unicode="c" glyph-name="c" horiz-adv-x="400" d="M26 230Q29 266 32 308T41 393T58 473T86 540T130 587T193 604Q218 604 231 583T250 532T256 471T257 419Q237 419 224 436T204 477T194 522L191 551Q190 551 188 551T184 552Q167 552 153 533T126 485T104
419T89 347T80 283T76 237Q74 211 76 180T88 122T116 76T164 49Q201 49 224 59T261 86T284 124T299 167T315 212T338 253Q350 256 355 253T363 243T365 229V218Q365 176 351 137T310 68T246 19T160 0Q120 0 94 25T53 87T32 162T26 230Z" />
<glyph unicode="d" glyph-name="d" horiz-adv-x="324" d="M245 183Q235 160 220 130T184 73T136 27T76 8Q61 8 53 11T38 22T26 39T12 61Q9 110 9 166T14 279T34 386T75 471T142 521T239 523Q242 551 240 598T234 697T226 797T221 877Q221 886 229 890T248 896T267
896T280 893Q278 770 279 652T281 416T285 182T287 -50Q287 -61 286 -73T268 -86Q262 -86 256 -83T248 -72L245 183ZM202 473Q171 475 145 449T99 380T67 288T53 191T58 108T89 59Q111 59 130 76T165 121T193 181T213 246T226 302T231 341Q231 351 232 373T231
417T223 456T202 473Z" />
<glyph unicode="e" glyph-name="e" horiz-adv-x="473" d="M55 216Q50 215 40 213T19 212T0 218T-9 235Q-9 242 -6 245T4 254Q26 272 41 300T70 361T97 426T131 485T178 527T247 542Q264 542 285 534T324 513T354 480T366 438Q371 430 357 415T317 383T261 347T200
312T149 284T120 266Q115 256 112 243T108 219T106 198T105 183Q105 164 104 141T105 98T122 64T166 50Q199 50 228 66T282 107T327 159T364 211T394 252T416 268Q426 268 437 265T449 248Q449 230 435 205T397 152T343 97T281 48T220 13T167 -1Q122 -1 99 21T67
76T57 146T55 216ZM239 486Q222 486 203 470T168 430T141 382T130 341Q145 341 173 352T230 381T279 417T300 453Q300 462 293 468T277 478T257 484T239 486Z" />
<glyph unicode="f" glyph-name="f" horiz-adv-x="354" d="M105 369Q101 369 93 366T77 358T60 349T46 345Q36 345 29 349T21 365Q21 375 30 384T53 402T79 419T98 435Q96 451 95 495T95 595T102 712T119 819T150 894T199 911Q220 911 237 899T266 868T284 827T291
787Q291 777 287 766T270 754H267Q266 754 265 755Q241 816 225 832T197 833T178 776T165 682T156 569T148 458Q168 463 181 468T206 478T226 489T246 499Q267 509 292 518T342 528Q342 499 332 480T305 449T267 432T225 422T184 414T151 404Q154 339 159 290T169
203T176 134T176 71Q176 64 176 52T176 27T168 7T149 -2Q137 -2 131 3T123 26Q117 107 114 163T108 258T106 319V365Q106 369 105 369Z" />
<glyph unicode="g" glyph-name="g" horiz-adv-x="448" d="M95 -391Q183 -386 233 -345T309 -239T339 -91T340 82T329 260T322 427Q279 301 241 224T171 107T112 59T65 61T33 98T15 151Q17 197 33 252T76 361T138 461T212 534T293 562T374 530Q375 529 377 504T383
437T391 344T400 240T407 139T413 56Q417 -1 409 -65T382 -189T337 -303T274 -390T195 -433T102 -418Q99 -418 93 -418T84 -414T82 -406T95 -391ZM67 158Q77 127 93 127T129 147T170 208T215 293T258 387T299 478Q299 489 294 498T272 504Q244 498 218 477T169
426T128 359T96 286T75 216T67 158Z" />
<glyph unicode="h" glyph-name="h" horiz-adv-x="478" d="M385 437Q348 451 314 426T249 356T190 252T138 142T95 53T59 12Q47 12 41 16T34 39V742Q34 751 41 753T58 754T75 750T85 742L98 179Q109 197 118 229T141 299T171 374T215 442T278 488T367 500Q401 500
422 479T444 422L454 23Q454 19 453 12T445 -1T427 -8T397 -3L385 437Z" />
<glyph unicode="i" glyph-name="i" horiz-adv-x="136" d="M42 20Q42 85 40 157T35 302T33 447T42 580Q44 581 51 581T62 582Q76 582 84 578T93 558Q93 499 93 430T92 289T91 147T93 20Q94 3 87 -2T68 -8Q56 -8 48 -3T42 20ZM20 736Q20 748 28 752T46 756Q66 756
71 743T76 713Q70 702 61 698T43 695T27 708T20 736Z" />
<glyph unicode="j" glyph-name="j" horiz-adv-x="115" d="M-176 -214Q-176 -195 -169 -194T-149 -201T-121 -225T-89 -256T-59 -283T-33 -295Q-14 -295 -1 -284T23 -253T39 -211T49 -165T54 -123T56 -90Q54 -14 48 61T36 210T28 359T30 512Q34 522 41 524T55 526Q64
526 70 524T81 512Q77 428 81 352T91 201T102 51T108 -105Q108 -117 106 -139T98 -187T85 -242T65 -293T38 -331T4 -346Q-14 -346 -44 -333T-103 -302T-154 -260T-176 -214ZM30 787Q30 792 34 798T44 809T57 816T68 819Q78 819 80 809T82 794Q82 767 55 767Q45
767 38 771T30 787Z" />
<glyph unicode="k" glyph-name="k" horiz-adv-x="439" d="M55 768Q76 788 88 784T107 757T114 697T114 614T108 516T101 415T97 320T100 242H103Q105 242 106 243Q158 295 199 353T273 462T331 552T379 604Q394 604 404 599T415 576Q415 574 415 570T414 563Q389
512 359 461T294 361T219 270T131 192Q131 191 131 189T130 185Q130 175 146 163T188 140T245 118T307 99T364 86T406 81Q406 77 406 66T405 43T398 22T382 12H378Q376 12 375 13L89 128Q88 69 81 33T65 -21T45 -38T26 -22L55 768Z" />
<glyph unicode="l" glyph-name="l" horiz-adv-x="141" d="M47 51Q54 97 56 166T59 313T55 474T47 631T36 765T22 858Q31 864 37 867T53 871Q60 871 65 869T73 858Q93 662 100 463T112 67Q112 58 112 43T111 26Q97 19 86 19T66 25T52 38T47 51Z" />
<glyph unicode="m" glyph-name="m" horiz-adv-x="593" d="M66 3Q63 31 61 79T57 183T53 301T47 417T40 517T30 589Q30 609 39 612T62 616Q64 616 71 616T81 615Q90 585 92 538T96 434T99 318T106 204Q120 283 129 335T147 418T163 465T180 486T201 491T229 490Q247
490 258 476T276 440T286 392T293 342T299 297T311 269Q336 343 354 390T385 464T408 504T426 518T440 519T454 517Q481 517 495 489Q511 444 517 404T524 326T525 254T526 188T537 125T567 64Q559 48 551 43T529 37Q517 37 508 45T493 66T484 92T477 115Q473 258
465 334T439 415T396 349T330 128Q327 123 321 122T309 121T296 121T283 121Q258 268 242 332T208 382T170 275T116 15L66 3Z" />
<glyph unicode="n" glyph-name="n" horiz-adv-x="495" d="M68 13Q57 148 49 283T30 565Q30 589 56 589H64Q67 589 71 581T79 552T89 487T103 373T121 198Q142 266 154 330T185 446T238 539T338 598Q374 592 396 555T431 462T449 343T455 219T456 114T458 47Q455
39 449 33T436 25T421 23T408 34Q408 45 406 79T401 158T395 255T389 352T384 432T381 477Q360 514 340 519T299 506T259 451T223 368T191 270T165 172T147 86T137 26Q134 19 125 13T105 3T84 1T68 13Z" />
<glyph unicode="o" glyph-name="o" horiz-adv-x="273" d="M25 137Q18 183 18 226T23 315T39 408T64 513Q64 524 70 533T86 549T107 560T128 564Q150 564 168 550T200 516T225 474T243 435Q251 400 254 356T255 265T241 175T210 93T159 31T84 0Q61 0 49 15T32 53T26
99T25 137ZM76 140Q76 130 76 121T78 104T82 86T89 64H95Q119 64 136 80T165 121T185 178T197 240T203 297T205 340V360Q205 373 204 389T201 423T193 455T180 479T159 488Q137 495 122 485T97 452T82 394T76 319T75 232T76 140Z" />
<glyph unicode="p" glyph-name="p" horiz-adv-x="494" d="M29 -263Q40 -158 41 -64T41 123T33 309T27 508Q30 522 34 529T59 533Q80 528 84 510T86 468T80 422T80 385Q112 408 148 433T223 477T304 506T388 507Q440 495 460 472T477 418T448 351T389 277T311 204T227
138T151 84T94 50Q93 38 92 13T89 -45T86 -112T83 -179T80 -236T78 -273Q76 -274 71 -275T59 -276T46 -277T38 -277Q35 -277 32 -272T29 -263ZM85 285Q82 271 83 251T87 208T93 164T97 128Q135 157 185 187T283 252T368 330T417 427Q421 448 414 455T388 466Q350
474 301 461T207 421T127 359T85 285Z" />
<glyph unicode="q" glyph-name="q" horiz-adv-x="418" d="M303 256Q299 228 292 192T266 123T209 66T104 38Q59 38 40 64T21 135Q21 163 30 199T56 272T96 346T146 410T203 456T265 474Q304 474 320 455T341 397L434 -281H380Q378 -278 375 -255T367 -196T357
-115T345 -23T334 72T323 157T312 221T303 256ZM72 127Q72 105 77 97T106 88Q136 77 162 90T208 133T245 202T271 283T286 362T290 426Q243 426 203 395T134 318T89 220T72 127Z" />
<glyph unicode="r" glyph-name="r" horiz-adv-x="406" d="M26 482V490Q26 500 33 504T51 508Q59 508 66 507T77 495Q80 480 83 454T90 395T98 328T107 261T117 204T128 166Q125 262 134 332T168 447T238 509T350 517Q381 517 381 484Q381 471 364 467T326 461T285
457T256 447Q220 427 206 385T185 286T177 162T163 23Q163 13 155 8T136 3T114 8T97 23L26 482Z" />
<glyph unicode="s" glyph-name="s" horiz-adv-x="375" d="M105 15Q105 14 126 27T177 61T238 108T289 157T310 196T283 218Q247 223 223 217T178 203T141 188T102 183Q58 183 42 210T25 285Q25 332 46 374T100 448T176 497T264 516Q282 516 295 513T308 490Q308
476 296 464T269 451Q268 451 264 452T256 457T248 461T243 463Q211 472 181 454T128 406T90 340T76 276Q76 265 80 259T92 249T109 246T129 245Q149 245 169 251T209 265T249 279T292 285Q302 285 314 280T336 264T353 240T361 210Q367 196 358 173T329 124T283
72T229 24T176 -11T132 -24Q112 -24 109 -12T105 15Z" />
<glyph unicode="t" glyph-name="t" horiz-adv-x="275" d="M53 427Q43 422 35 417T18 407T2 400T-15 400Q-21 400 -25 407T-31 424T-35 443T-35 458L61 513L67 769Q69 782 83 780T112 773Q114 773 118 772T125 769Q123 742 121 711T116 648T114 586T116 532L266
574Q270 575 272 569T277 553T281 535T282 526L112 454Q112 445 113 411T117 331T121 231T125 131T128 51T129 7Q127 -23 112 -23T78 -8L53 427Z" />
<glyph unicode="u" glyph-name="u" horiz-adv-x="397" d="M280 116Q276 104 261 84T224 43T181 7T141 -9Q109 -9 89 21T57 98T42 202T37 315T36 415T33 483Q37 493 43 495T59 497Q67 497 73 495T85 483Q85 472 85 446T88 388T92 320T95 252T98 195T101 157Q102
150 103 134T108 101T117 69T132 54Q147 54 162 67T193 100T221 144T244 190T260 231T267 257Q269 274 271 305T274 373T275 441T276 490L331 487Q332 406 330 341T329 218T338 106T367 -6Q364 -9 355 -14T342 -20Q317 -20 309 -4T298 35T294 80T280 116Z" />
<glyph unicode="v" glyph-name="v" horiz-adv-x="363" d="M13 409Q13 410 13 412T12 416Q12 431 24 433T46 436Q57 436 71 418T102 369T138 302T176 232T216 169T256 128Q262 219 265 283T269 391T271 460T271 500T270 518T269 525Q269 543 275 547T293 551Q306
551 320 547T334 527Q337 462 335 396T327 264T319 135T319 13Q317 11 310 9T295 4T280 1T269 0Q259 2 238 27T191 92T137 179T84 272T39 354T13 409Z" />
<glyph unicode="w" glyph-name="w" horiz-adv-x="580" d="M196 26Q191 41 179 73T152 145T120 230T88 315T61 387T43 435Q37 444 33 455T28 478T33 499T49 512Q60 512 68 505T81 487L196 192Q197 206 201 242T209 320T216 397T222 448Q223 458 224 471T228 496T239
517T261 526Q271 526 275 524T286 512L478 184V522Q507 522 518 508T532 472T532 427T530 384Q530 377 531 354T533 301T536 237T538 172T541 119T542 89Q549 69 542 63T521 58T495 69T478 89L274 435Q267 284 260 183T247 13Q244 2 237 1T223 3T208 14T196 26Z"
/>
<glyph unicode="x" glyph-name="x" horiz-adv-x="465" d="M172 -62Q158 -76 146 -75T126 -65T116 -41T121 -11L185 258Q168 278 142 302T90 351T43 401T17 450Q17 476 44 476Q61 479 71 473T90 456T106 427T127 392T159 356T210 322Q216 339 221 376T229 456T235
541T237 610Q240 614 249 616T270 619T290 615T301 604Q306 561 300 520T284 437T266 354T262 271L440 92Q441 91 443 84T445 74Q445 68 444 62T440 51T431 42T416 40Q403 54 384 74T341 117T294 161T248 194H243L242 195Q237 195 233 190T223 159T205 82T172 -62Z"
/>
<glyph unicode="y" glyph-name="y" horiz-adv-x="372" d="M283 4L25 417Q24 418 23 424T22 435Q22 448 26 457T50 467Q54 467 64 463T76 454Q98 419 121 376T170 290T224 208T283 140L307 532Q308 532 312 532T319 533Q328 533 337 531T350 517Q351 481 351 428T349
319T346 212T343 129Q342 109 340 69T334 -21T326 -128T317 -234T310 -324T305 -383H253L283 4Z" />
<glyph unicode="z" glyph-name="z" horiz-adv-x="633" d="M162 -10Q157 13 165 49T190 129T227 218T269 305T306 381T328 435Q328 436 328 437T329 441Q329 443 329 445T328 448Q300 437 267 424T199 398T133 375T73 358Q69 355 59 360T40 373T28 391T34 409Q67
409 112 422T203 454T294 489T373 514Q406 514 406 481Q406 445 394 411T363 343T323 278T283 213T251 146T238 76V64L604 139H611Q625 139 636 131T653 112T654 90T629 74Q625 74 621 73T602 70T559 63T481 49T353 26T162 -10Z" />
<glyph unicode="{" glyph-name="braceleft" horiz-adv-x="357" d="M276 -49Q280 -53 279 -58T273 -68T262 -78T253 -86Q228 -83 192 -78T119 -50T52 19T11 151Q11 212 12 251T23 311T50 339T103 340Q117 338 117 352T108 384T83 420T52 443Q25 462 23 477T31 500T62
511T101 508Q118 514 128 520T141 535T138 559T115 600Q84 648 78 691T85 770T128 831T194 865T273 865T354 823Q354 809 345 798T322 786Q321 786 320 786T317 787Q307 814 283 823T232 826T180 801T140 752T129 687T162 609Q199 560 203 534T182 498L169 492Q157
488 143 482T115 471L103 465Q106 454 117 439T140 409T162 384T175 368Q186 346 181 333T159 309T123 289T87 264T62 224T61 160Q61 121 75 92T110 42T157 7T206 -17T249 -34T276 -49Z" />
<glyph unicode="|" glyph-name="bar" horiz-adv-x="141" d="M47 51Q54 97 56 166T59 313T55 474T47 631T36 765T22 858Q31 864 37 867T53 871Q60 871 65 869T73 858Q93 662 100 463T112 67Q112 58 112 43T111 26Q97 19 86 19T66 25T52 38T47 51Z" />
<glyph unicode="}" glyph-name="braceright" horiz-adv-x="357" d="M66 -76Q73 -68 91 -61T131 -43T178 -19T223 16T257 66T270 136Q277 175 269 200T245 240T211 265T178 285T157 308T161 344Q163 348 173 360T195 386T217 415T229 443L218 448Q206 454 192 459T166
470L156 475Q131 485 135 511T175 587Q202 627 205 664T195 731T158 780T108 807T60 805T28 767Q27 767 25 767T22 766Q11 766 2 777T-7 804Q30 835 69 844T144 845T206 811T246 751T254 670T219 578Q202 552 197 537T193 512T206 498T232 486Q249 492 268 490T297
478T305 454T277 419Q262 415 248 398T226 361T217 328T229 316Q261 321 278 316T304 288T315 227T317 126Q310 68 295 29T259 -36T216 -76T170 -98T125 -108T88 -113Q85 -110 80 -105T70 -95T63 -85T66 -76Z" />
<glyph unicode="~" glyph-name="asciitilde" horiz-adv-x="470" d="M377 711Q391 715 403 715T421 698Q427 683 418 665T391 628T353 594T314 569Q299 565 285 567T258 574T237 588T225 605Q212 612 207 626T195 653T179 676T151 685Q130 685 121 675T106 651T94
623T74 598Q64 595 58 596T48 602T42 612T38 626Q40 657 53 678T86 711T129 728T174 731T214 721T240 699Q254 653 267 638T294 624T319 641T341 673T361 702T377 711Z" />
<glyph unicode="&#xa0;" glyph-name="nbspace" horiz-adv-x="461" />
<glyph unicode="&#xa1;" glyph-name="exclamdown" horiz-adv-x="141" d="M27 137Q27 67 30 -2T39 -146Q42 -152 45 -154T55 -156Q63 -156 66 -152T71 -142T73 -130T72 -119V116Q72 130 75 145L80 176Q83 191 84 204T83 227Q81 235 73 241T55 248Q39 248 33 234T26
202T25 165T27 137ZM82 494V481Q82 478 82 474T86 466T94 463Q111 463 114 470T117 487Q117 498 114 505T94 512Q89 512 86 509T83 502T82 494Z" />
<glyph unicode="&#xa2;" glyph-name="cent" horiz-adv-x="404" d="M182 -59Q184 -45 185 -30T188 2Q181 0 174 0H160Q120 0 94 25T53 87T32 162T26 230Q30 282 35 342T54 457T94 552T166 601Q159 664 150 703Q159 709 166 712T182 716Q189 716 194 714T202 703Q204
674 207 647T211 595Q231 585 254 569T294 533T315 493T303 454Q291 454 279 463T254 485T232 512T213 535Q216 482 218 429T222 319T225 201T228 70V60Q256 73 269 96T292 146T310 201T338 253Q350 256 355 253T363 243T365 229V218Q365 185 356 153T330 94T289
46T233 13Q236 -11 238 -31T240 -53Q214 -68 198 -69T182 -59ZM164 49Q171 49 177 49T191 51Q193 106 193 170T189 300T182 429T172 549Q157 543 144 521T120 470T101 406T88 339T79 279T76 237Q74 211 76 180T88 122T116 76T164 49Z" />
<glyph unicode="&#xa3;" glyph-name="sterling" horiz-adv-x="552" d="M13 383Q13 385 13 392T15 402Q31 404 65 409T142 419Q157 480 184 528T246 610T322 662T403 681Q427 681 445 672T474 648T491 613T497 571Q479 571 468 580T448 600T429 620T404 630Q375
630 344 617T284 578T232 514T195 426Q233 430 264 434T310 440Q311 440 319 440T337 441T354 442T364 443Q364 431 348 420T306 400T248 383T183 369L163 237Q166 203 163 167T158 103T161 59T182 50Q192 54 206 65T239 88T284 110T339 122T407 117T489 85Q513
83 521 74T525 54T500 34T451 23Q444 40 427 52T377 66T295 53T175 0Q166 -8 156 -12T137 -13T120 8T108 58T105 143T115 274Q116 285 117 294T120 313T124 334T130 360Q101 355 79 353T47 351Q13 351 13 383Z" />
<glyph unicode="&#xa4;" glyph-name="currency" horiz-adv-x="512" d="M84 89Q66 81 55 86T40 102T39 128T54 155L145 289Q131 342 129 388T146 482Q130 514 121 544T114 598Q124 623 148 613Q173 608 179 590T189 546Q217 573 262 584Q304 576 328 554Q343 588
355 618T376 670Q381 673 390 672T410 666T427 656T434 643Q424 600 404 564T360 493Q367 465 368 434T373 371Q373 341 371 304T350 224L382 149Q382 148 382 142T380 131Q378 126 375 121T367 111T356 106T341 111Q335 124 327 143T309 186Q296 175 281 169T244
163Q202 145 168 220Q153 196 133 164T84 89ZM180 404Q181 336 188 297T208 242T234 226T263 239T291 270T313 308T325 341T324 357Q324 386 324 411T318 456T302 491T269 517Q251 517 235 507T206 480T186 445T179 410V407Q179 405 180 404Z" />
<glyph unicode="&#xa5;" glyph-name="yen" horiz-adv-x="490" d="M94 782Q94 783 94 785T94 788Q97 796 101 798T111 801T123 800T133 796Q149 791 162 768T190 714T220 647T257 583Q292 667 314 716T349 789T367 819T374 821T374 812T373 807Q380 824 387 826T405
823Q418 819 429 812T436 788Q417 749 400 719T367 665T339 620T315 575T295 522T280 454L279 447Q279 441 279 431T278 409V385Q310 390 334 392T370 396Q372 396 380 396T397 397T414 398T424 399Q437 381 430 367T401 343T347 325T278 313V259Q301 261 322 261T367
259Q395 256 403 250T408 236T392 222T367 211Q352 216 329 216T278 213Q278 175 278 139T277 76T275 34T272 18L218 12L222 206Q193 202 164 198T111 192T71 194T49 207Q49 211 54 220T62 233Q111 236 150 241T223 253L224 309Q191 306 161 306T107 307Q73 307
73 339Q73 341 74 348T76 358Q84 359 99 361T134 366T178 372T226 378L228 459Q219 475 206 502T178 562T149 629T123 694T103 748T94 782Z" />
<glyph unicode="&#xa6;" glyph-name="brokenbar" horiz-adv-x="141" d="M53 533Q50 579 47 628T39 721T31 802T22 858Q31 864 37 867T53 871Q60 871 65 869T73 858Q76 823 79 782T86 698T92 613T97 535L53 533ZM101 470Q104 405 106 358T109 267T110 177T112 67Q112
58 112 43T111 26Q97 19 86 19T66 25T52 38T47 51Q53 94 56 138T61 232T62 340T57 470H101Z" />
<glyph unicode="&#xa7;" glyph-name="section" horiz-adv-x="375" d="M105 15Q105 14 126 27T177 61T238 108T289 157T310 196T283 218Q247 223 223 217T178 203T141 188T102 183Q58 183 42 210T25 285Q25 326 40 362T81 427Q44 432 31 459T17 530Q17 577 37 619T91
692T168 742T256 760Q274 760 287 758T300 734Q300 721 288 709T261 696Q260 696 256 697T248 702T240 706T235 708Q202 716 173 698T120 650T82 585T67 521Q67 509 72 503T84 494T101 490T121 490Q141 490 161 496T201 509T241 523T283 530Q294 530 306 524T328
508T345 485T353 454Q359 441 350 419T321 371T277 319T224 270Q240 276 257 280T292 285Q302 285 314 280T336 264T353 240T361 210Q367 196 358 173T329 124T283 72T229 24T176 -11T132 -24Q112 -24 109 -12T105 15ZM76 276Q76 253 93 252T134 263T188 300T240
351T278 403T288 444T258 464T174 449Q153 436 135 415T104 370T84 321T76 276Z" />
<glyph unicode="&#xa8;" glyph-name="dieresis" horiz-adv-x="314" d="M62 739Q76 754 86 759T112 765Q139 765 139 739Q139 733 136 726T127 712T114 701T101 700Q94 696 87 698T73 706T64 720T62 739ZM194 739Q209 754 219 759T245 765Q272 765 272 739Q272
733 269 726T259 712T246 701T233 700Q227 696 219 698T205 706T196 720T194 739Z" />
<glyph unicode="&#xa9;" glyph-name="copyright" horiz-adv-x="497" d="M15 214Q23 330 49 417T113 564T194 655T283 689T368 669T439 594Q472 532 480 464T475 331T431 206T356 101T258 28T145 -1Q108 -1 83 22T43 78T22 148T15 214ZM138 317Q141 349 145 387T163
458T203 513T274 535Q295 535 306 522T322 492T327 457T328 427Q308 423 295 432T274 454T264 478Q262 489 263 490Q242 489 229 469Q215 448 208 420T197 365T194 322Q193 307 193 289T197 255T214 227T251 211Q288 222 306 238T336 270T359 303T393 330Q405 332
409 329T415 320Q423 418 413 482T380 583T325 628T259 624T190 574T129 487T85 367T68 220Q68 195 70 168T82 119T109 82T159 67Q197 66 230 78T291 113T342 167T382 233Q372 222 358 210T326 187T288 170T245 163Q211 163 190 181T158 223T142 274T138 317Z"
/>
<glyph unicode="&#xaa;" glyph-name="ordfeminine" horiz-adv-x="233" d="M185 152Q182 165 180 182T176 218T170 251T160 277Q129 228 106 200T66 159T36 146T16 155T5 176T1 200Q1 210 7 229T23 271T47 317T77 360T110 391T145 404Q171 407 183 395T187 354Q187
323 190 301T198 258T205 215T208 160Q208 154 207 150T192 146Q190 146 188 148T185 152ZM153 366Q146 374 135 368T111 348T85 313T61 272T41 233T30 203Q30 185 36 183T52 188T74 210T98 241T120 273T137 298Q142 308 145 316T150 333T152 349T153 366Z" />
<glyph unicode="&#xab;" glyph-name="guillemotleft" horiz-adv-x="668" d="M51 366Q52 368 52 369L355 621Q360 626 363 632T370 643T379 650T394 649Q408 644 409 633T407 608Q406 607 406 605Q406 604 405 603Q372 557 340 528T272 474T199 423T116 357L123
341Q124 339 145 326T194 295T252 259T301 230Q305 228 316 223T341 213T367 204T384 198Q387 187 388 180T385 164Q381 152 369 143T345 130Q330 144 301 162T237 200T166 243T102 286T59 326T49 363L51 366ZM242 378Q243 380 243 381L546 633Q551 638 554 644T561
655T570 662T585 661Q598 656 600 645T598 620Q597 619 597 616Q597 616 596 615Q562 569 530 540T463 486T389 435T307 369L314 353Q315 351 335 338T384 307T443 271T492 242Q496 239 507 234T532 225T558 216T575 210Q578 199 579 192T576 175Q571 164 560 155T535
142Q520 156 491 174T427 212T356 254T293 297T250 338T240 374L242 378Z" />
<glyph unicode="&#xac;" glyph-name="logicalnot" horiz-adv-x="552" d="M65 359Q65 363 70 372T78 385Q122 388 176 391T285 398T393 405T485 408Q490 408 493 403T498 392T499 379V372Q499 319 507 266T515 148Q515 143 510 140T498 136T485 135H478Q474 135
469 136T462 137L458 353L141 346Q139 346 129 346T112 345L104 344Q97 344 88 345T72 349T65 359Z" />
<glyph unicode="&#xad;" glyph-name="uni00AD" horiz-adv-x="409" d="M13 204Q13 208 18 218T26 230Q70 233 114 249T203 283T289 317T372 333Q377 333 380 328T384 317T386 304V297Q386 293 385 288T384 281L89 192Q87 191 77 191T60 190L52 189Q45 189 36 190T20
194T13 204Z" />
<glyph unicode="&#xae;" glyph-name="registered" horiz-adv-x="392" d="M15 214Q23 330 48 416T108 560T186 646T272 677T354 654T423 579Q462 513 475 444T481 311T444 188T372 88T270 22T145 -1Q108 -1 83 22T43 78T22 148T15 214ZM148 517L153 514Q159 512
166 510T178 506T184 503Q186 503 191 502T195 497L192 471Q200 472 211 478T238 491T273 502T313 505Q359 492 374 475T384 438T358 400T313 364T265 335L229 316Q241 310 260 299T300 276T339 254T367 240Q384 229 391 219Q411 268 419 323T422 429T398 521T344
585T261 605T148 567Q134 526 120 483T95 395T76 306T68 220Q68 195 70 170T82 124T110 88T159 67Q195 59 227 65T286 88T335 128T373 184Q356 185 331 206Q323 209 303 221T259 249T215 276T186 291V158L144 163L148 517ZM195 430Q194 423 194 413T192 391T190
368T189 347Q192 349 210 358L251 379Q274 391 297 404T333 431T342 454T309 469Q296 470 280 468T248 460T217 448T195 430Z" />
<glyph unicode="&#xaf;" glyph-name="overscore" horiz-adv-x="409" d="M13 700Q13 704 18 714T27 726Q71 729 115 734T202 746T287 756T369 761Q374 761 377 756T382 745T383 733V725Q383 722 383 716T382 709L90 688Q88 687 78 687T61 686L53 685Q46 685 37
686T21 690T13 700Z" />
<glyph unicode="&#xb0;" glyph-name="degree" horiz-adv-x="206" d="M29 462Q23 479 27 495T43 525T73 547T113 555Q142 555 154 545T177 517Q184 489 184 465T174 425T141 401T79 395Q64 395 55 402T39 421T31 443T29 462ZM64 463Q64 453 70 447T85 431Q102 429
111 428T127 430T137 442T149 465Q151 489 138 501T108 514T77 502T64 463Z" />
<glyph unicode="&#xb1;" glyph-name="plusminus" horiz-adv-x="478" d="M49 86Q49 90 54 100T62 112Q99 114 131 119T195 130L171 269Q168 269 165 270Q162 270 160 270T156 271Q127 271 97 262T43 243Q36 248 26 256T16 275Q16 286 28 292T58 300T97 304T136
308T166 316T178 333V550Q178 555 184 558T199 564T213 566T222 567V346Q250 355 268 360T303 369T339 375T390 377Q390 368 387 355T373 337Q354 333 330 329T286 319Q283 319 278 318T266 314T254 310T247 307Q245 305 240 301T235 294V138Q268 145 301 149T372
154Q377 154 380 149T384 138T386 125V118Q386 114 385 109T384 102Q300 96 246 91T159 82T113 75T96 72L88 71Q81 71 72 72T56 76T49 86Z" />
<glyph unicode="&#xb2;" glyph-name="twosuperior" horiz-adv-x="326" d="M70 167Q87 195 103 224T132 282T152 342T160 406Q155 424 148 434T128 443T93 423T33 369Q27 372 22 376T17 386Q17 387 17 388T18 390Q29 402 43 417T75 445T110 468T150 477Q170 468
179 448T188 402T183 346T165 287T141 232T115 186L273 232Q273 232 275 232T280 232Q283 232 287 232T294 230T300 227T303 221Q282 208 254 200T197 184T139 169T88 151Q81 151 76 153T70 167Z" />
<glyph unicode="&#xb3;" glyph-name="threesuperior" horiz-adv-x="287" d="M103 192Q103 201 113 211T139 232T172 255T205 283T230 315T240 353Q240 367 234 376T219 391T197 398T173 400Q161 401 150 397T127 386T104 372T83 360T64 357T44 367V369Q44 371
44 371L148 487Q165 509 165 521T157 538T130 540T95 530T61 511T37 487Q36 487 35 487T33 486Q26 486 20 492T13 505Q13 513 22 521T46 537T79 551T115 563T148 571T171 575Q186 567 191 556T193 530T183 499T165 468T144 438T126 414Q138 421 152 421T180 422Q196
422 211 418T240 406T261 385T269 356Q269 327 254 301T215 252T166 209T119 174Q113 177 108 181T103 192Z" />
<glyph unicode="&#xb4;" glyph-name="acute" horiz-adv-x="159" d="M49 601Q22 607 20 622T30 656T66 698T112 742Q129 742 135 733T141 712V705Q139 693 129 679T105 651T76 624T49 601Z" />
<glyph unicode="&#xb5;" glyph-name="mu" horiz-adv-x="397" d="M280 168Q270 145 252 124T212 86T169 59T127 48T96 55T82 84Q79 84 77 68T73 29T70 -20T69 -68V-115L27 -131L33 535Q37 545 43 547T59 549Q67 549 73 547T85 535Q85 524 85 498T88 440T92 373T95
305T98 247T101 210Q102 202 103 186T108 153T117 121T132 106Q147 106 162 119T193 152T221 196T244 242T260 283T267 310Q269 326 271 358T274 426T275 494T276 542L331 539Q337 455 338 393T339 279T342 181T351 85Q349 84 341 83T323 81T305 80T294 79L280
168Z" />
<glyph unicode="&#xb6;" glyph-name="paragraph" horiz-adv-x="458" d="M375 30Q368 87 364 135T358 224T356 306T355 388T355 477T354 581Q346 575 341 574T330 573T319 568T303 552Q305 503 309 440T317 311T324 182T327 70Q327 62 327 52T323 32T314 17T293
11Q283 11 280 19T274 38Q275 76 272 134T265 255T255 378T248 481Q244 463 226 449T182 424T129 408T78 407T39 423T23 462Q23 502 30 532T55 583T101 618T173 642Q223 646 255 649T309 653T350 652T392 644Q392 624 394 580T398 480T403 363T407 246T411 146T413
81Q413 79 413 67T414 50Q414 43 414 37T413 27T405 20T389 17Q385 17 380 22T375 30Z" />
<glyph unicode="&#xb7;" glyph-name="middot" horiz-adv-x="132" d="M20 265Q34 281 44 286T70 292Q97 292 97 265Q97 260 94 253T84 238T72 228T58 227Q52 222 45 224T31 232T21 247T20 265Z" />
<glyph unicode="&#xb8;" glyph-name="cedilla" horiz-adv-x="330" d="M66 -267Q66 -264 86 -260T133 -250T185 -236T218 -215T210 -187T139 -148Q95 -148 79 -121T63 -45Q67 -1 74 20T88 47T103 44T114 20T118 -16T113 -54Q159 -86 193 -103T251 -136T286 -174T298
-240Q291 -261 267 -274T212 -294T149 -305T93 -307Q72 -307 69 -295T66 -267Z" />
<glyph unicode="&#xb9;" glyph-name="onesuperior" horiz-adv-x="115" d="M45 165Q36 210 33 252T30 335T33 417T33 504Q33 505 37 508T45 511Q47 511 56 508T68 504Q68 493 69 469T70 413T72 349T75 284T77 229T78 193Q78 192 78 186T78 176Q78 172 78 169T78
164T71 160T56 158Q53 158 49 161T45 165Z" />
<glyph unicode="&#xba;" glyph-name="ordmasculine" horiz-adv-x="218" d="M21 210Q15 233 15 255T19 299T32 346T52 400Q52 405 57 410T70 418T86 423T103 425Q121 425 135 418T160 401T180 380T195 360Q201 343 204 321T205 275T193 229T168 188T127 157T68
141Q50 141 41 149T27 168T22 190T21 210ZM62 212Q62 207 62 202T63 193T67 184T72 173H77Q96 173 109 181T132 202T148 231T158 262T163 291T164 312V322Q164 329 164 337T161 354T155 370T145 382T128 387Q110 390 98 385T78 369T66 340T62 302T61 258T62 212Z"
/>
<glyph unicode="&#xbb;" glyph-name="guillemotright" horiz-adv-x="641" d="M47 148Q50 168 76 194T139 249T216 308T288 365T336 418T341 461L61 612Q58 615 53 624T48 638Q48 642 50 647T57 658T65 668T74 676L380 499Q404 483 401 456T377 395T320 326T246
256T169 193T104 145T63 119T61 122Q50 122 49 132T47 148ZM234 160Q238 181 264 207T327 262T404 321T476 378T524 430T528 473L248 625Q245 627 240 636T235 651Q235 654 237 659T244 671T252 681T261 688L567 512Q591 496 588 469T564 408T507 338T433 269T357
206T291 157T250 131T248 135Q238 135 236 145T234 160Z" />
<glyph unicode="&#xbc;" glyph-name="onequarter" horiz-adv-x="695" d="M45 156Q36 208 33 256T30 352T33 447T33 547Q33 549 37 552T45 555Q47 555 56 552T68 547Q68 534 69 506T70 442T72 368T75 294T77 230T78 189Q78 187 78 180T78 169Q78 165 78 161T78
154T71 150T56 148Q53 148 49 151T45 156ZM36 197L268 958H317L69 157Q56 157 46 167T36 190V197ZM200 160Q200 162 201 169T205 185T215 200T234 204Q274 241 305 278T365 351T421 426T480 505Q484 513 489 514T504 515Q509 515 518 514T528 505V247Q559 247 588
252T649 258Q657 238 647 232T617 223T573 219T528 212V-3Q528 -7 522 -10T508 -16T492 -20T480 -22V206L200 160ZM480 411Q460 387 435 362T385 310T339 257T304 204H315Q334 207 362 212T416 224T461 234L480 238V411Z" />
<glyph unicode="&#xbd;" glyph-name="onehalf" horiz-adv-x="710" d="M67 171Q59 224 57 274T55 374T57 472T57 576Q57 578 61 581T67 584Q69 584 77 581T87 576Q87 562 88 533T89 467T91 390T94 313T95 247T96 204Q96 203 96 195T96 184Q96 179 96 175T96 168T90
164T77 162Q75 162 71 165T67 171ZM86 -46L318 715H367L119 -86Q106 -86 96 -76T86 -53V-46ZM314 37Q337 72 358 110T396 186T423 265T434 347Q426 371 417 384T391 395T345 369T265 299Q258 303 251 308T244 322Q244 322 244 324T245 327Q260 342 279 362T320
399T367 428T420 439Q447 428 458 402T470 342T463 270T440 193T408 120T374 61L582 121Q583 121 586 121T592 122Q596 122 601 121T611 119T619 114T623 107Q595 90 558 79T482 58T405 39T338 16Q328 16 321 18T314 37Z" />
<glyph unicode="&#xbe;" glyph-name="threequarters" horiz-adv-x="889" d="M160 171Q160 183 174 195T208 222T252 253T297 290T330 332T344 381Q344 400 336 412T316 431T287 440T255 443Q237 444 222 438T191 423T162 405T133 391T106 386T80 400V402Q80 404
80 404L221 556Q244 585 244 601T231 623T196 626T149 612T103 587T70 556Q69 556 67 556T65 555Q55 555 47 563T39 579Q39 590 51 600T83 621T127 640T175 656T219 667T251 671Q272 661 278 646T281 612T267 572T243 531T215 493T191 461Q207 470 226 470T264
471Q284 471 305 466T344 450T373 423T384 385Q384 348 363 314T311 249T245 193T180 147Q173 151 167 157T160 171ZM308 -46L540 715H589L341 -86Q328 -86 318 -76T308 -53V-46ZM361 189Q361 191 361 200T364 218T372 235T387 239Q418 282 443 324T490 409T533
496T579 586Q583 595 587 596T598 598Q602 598 609 597T616 586V289Q641 289 664 295T711 301Q717 279 710 271T687 261T652 257T616 249V0Q616 -4 612 -8T601 -15T589 -20T579 -22V242L361 189ZM579 478Q563 450 544 421T505 361T469 300T442 239H451Q465 243
487 249T529 262T565 274L579 279V478Z" />
<glyph unicode="&#xbf;" glyph-name="questiondown" horiz-adv-x="555" d="M354 776Q354 761 347 757T328 752Q311 752 299 763T286 789Q286 802 297 807T321 812Q327 812 333 808T343 798T351 787T354 776ZM409 407Q409 371 389 341T339 284T274 232T209 179T160
121T139 52Q139 31 151 21T183 7T224 3T265 4Q298 4 328 16T386 41T441 65T497 77Q510 77 519 74T528 52Q528 41 511 30T465 9T403 -11T337 -27T279 -38T240 -42Q216 -42 189 -39T139 -27T101 -2T86 39Q86 86 113 131T178 218T257 294T328 356Q341 362 344 373T344
397T329 420T301 438T262 442T213 426L193 461Q215 476 244 481T301 486Q321 486 340 481T374 465T399 441T409 407Z" />
<glyph unicode="&#xc0;" glyph-name="Agrave" horiz-adv-x="400" d="M41 256Q44 270 46 292T51 350T59 439T72 568T90 746T118 985Q119 995 127 997T143 999Q154 999 161 991T173 973T184 952T195 934Q205 911 215 881T238 817T262 749T286 682T308 622T328 576Q339
577 359 584T402 599T447 610T484 611T503 593T496 549Q489 549 483 551T471 556T459 561T444 564Q439 564 422 559T384 547T349 534T334 524L403 253L377 215Q360 244 349 281T327 356T307 426T280 481Q259 471 230 464T174 447T128 419T104 371Q102 359 101 339T97
301Q94 279 92 256H41ZM156 845L154 828Q153 811 151 789T147 743T143 703Q138 647 133 593T127 481Q146 481 167 486T209 499T245 520T271 549Q263 584 254 621T233 697T209 773T181 845Q180 846 174 849T156 845ZM202 757Q192 768 179 781T154 810T132 841T121
869V876Q121 889 126 899T146 909Q167 886 187 862T218 817T228 779T202 757Z" />
<glyph unicode="&#xc1;" glyph-name="Aacute" horiz-adv-x="400" d="M26 26Q29 40 31 62T36 120T44 209T57 338T75 516T103 755Q104 765 112 767T128 769Q139 769 146 761T158 743T169 722T180 704Q190 681 200 651T223 587T247 519T271 452T293 392T313 346Q324
347 344 354T387 369T432 380T469 381T488 363T481 319Q474 319 468 321T456 326T444 331T429 334Q424 334 407 329T369 317T334 304T319 294L388 23L362 -15Q345 14 334 51T312 126T292 196T265 251Q244 241 215 234T159 217T113 189T89 141Q87 129 86 109T82
71Q79 49 77 26H26ZM141 615L139 598Q138 581 136 559T132 513T128 473Q123 417 118 363T112 251Q131 251 152 256T194 269T230 290T256 319Q248 354 239 391T218 467T194 543T166 615Q165 616 159 619T141 615ZM97 811Q70 817 68 832T78 866T114 908T160 952Q177
952 183 943T189 922V915Q187 903 177 889T153 861T124 834T97 811Z" />
<glyph unicode="&#xc2;" glyph-name="Acircumflex" horiz-adv-x="400" d="M26 26Q29 40 31 62T36 120T44 209T57 338T75 516T103 755Q104 765 112 767T128 769Q139 769 146 761T158 743T169 722T180 704Q190 681 200 651T223 587T247 519T271 452T293 392T313
346Q324 347 344 354T387 369T432 380T469 381T488 363T481 319Q474 319 468 321T456 326T444 331T429 334Q424 334 407 329T369 317T334 304T319 294L388 23L362 -15Q345 14 334 51T312 126T292 196T265 251Q244 241 215 234T159 217T113 189T89 141Q87 129 86
109T82 71Q79 49 77 26H26ZM141 615L139 598Q138 581 136 559T132 513T128 473Q123 417 118 363T112 251Q131 251 152 256T194 269T230 290T256 319Q248 354 239 391T218 467T194 543T166 615Q165 616 159 619T141 615ZM226 787Q226 789 226 791T227 795L354 1032Q355
1036 365 1042T386 1048Q387 1048 389 1048T391 1047L555 856Q575 852 578 846T582 830Q582 826 581 820T575 808T565 798T548 794H544Q543 794 543 795L403 970Q398 979 384 979H379L265 780Q264 778 259 775T252 772Q234 772 230 776T226 787Z" />
<glyph unicode="&#xc3;" glyph-name="Atilde" horiz-adv-x="400" d="M26 26Q29 40 31 62T36 120T44 209T57 338T75 516T103 755Q104 765 112 767T128 769Q139 769 146 761T158 743T169 722T180 704Q190 681 200 651T223 587T247 519T271 452T293 392T313 346Q324
347 344 354T387 369T432 380T469 381T488 363T481 319Q474 319 468 321T456 326T444 331T429 334Q424 334 407 329T369 317T334 304T319 294L388 23L362 -15Q345 14 334 51T312 126T292 196T265 251Q244 241 215 234T159 217T113 189T89 141Q87 129 86 109T82
71Q79 49 77 26H26ZM141 615L139 598Q138 581 136 559T132 513T128 473Q123 417 118 363T112 251Q131 251 152 256T194 269T230 290T256 319Q248 354 239 391T218 467T194 543T166 615Q165 616 159 619T141 615ZM327 1010Q341 1014 353 1014T371 997Q377 982 368
964T341 927T303 893T264 868Q249 864 235 866T208 873T187 887T175 904Q162 911 157 925T145 952T129 975T101 984Q80 984 71 974T56 950T44 922T24 897Q14 894 8 895T-2 901T-8 911T-12 925Q-10 956 3 977T36 1010T79 1027T124 1030T164 1020T190 998Q204 952
217 937T244 923T269 940T291 972T311 1001T327 1010Z" />
<glyph unicode="&#xc4;" glyph-name="Adieresis" horiz-adv-x="400" d="M26 26Q29 40 31 62T36 120T44 209T57 338T75 516T103 755Q104 765 112 767T128 769Q139 769 146 761T158 743T169 722T180 704Q190 681 200 651T223 587T247 519T271 452T293 392T313 346Q324
347 344 354T387 369T432 380T469 381T488 363T481 319Q474 319 468 321T456 326T444 331T429 334Q424 334 407 329T369 317T334 304T319 294L388 23L362 -15Q345 14 334 51T312 126T292 196T265 251Q244 241 215 234T159 217T113 189T89 141Q87 129 86 109T82
71Q79 49 77 26H26ZM141 615L139 598Q138 581 136 559T132 513T128 473Q123 417 118 363T112 251Q131 251 152 256T194 269T230 290T256 319Q248 354 239 391T218 467T194 543T166 615Q165 616 159 619T141 615ZM52 882Q66 897 76 902T102 908Q129 908 129 882Q129
876 126 869T117 855T104 844T91 843Q84 839 77 841T63 849T54 863T52 882ZM184 882Q199 897 209 902T235 908Q262 908 262 882Q262 876 259 869T249 855T236 844T223 843Q217 839 209 841T195 849T186 863T184 882Z" />
<glyph unicode="&#xc5;" glyph-name="Aring" horiz-adv-x="400" d="M7 803Q-1 822 5 840T28 872T73 896T133 905Q156 905 171 902T197 894T215 881T230 864Q241 832 241 807T227 764T176 737Q170 735 163 733Q166 728 168 722Q174 711 180 704Q190 681 200 651T223
587T247 519T271 452T293 392T313 346Q324 347 344 354T387 369T432 380T469 381T488 363T481 319Q474 319 468 321T456 326T444 331T429 334Q424 334 407 329T369 317T334 304T319 294L388 23L362 -15Q345 14 334 51T312 126T292 196T265 251Q244 241 215 234T159
217T113 189T89 141Q87 129 86 109T82 71Q79 49 77 26H26Q29 40 31 62T36 120T44 209T57 338T76 517Q85 609 99 730Q92 730 83 731Q60 731 46 739T22 758T10 782T7 803ZM141 615L139 598Q138 581 136 559T132 513T128 473Q123 417 118 363T112 251Q131 251 152
256T194 269T230 290T256 319Q248 354 239 391T218 467T194 543T166 615Q165 616 159 619T141 615ZM58 805Q58 794 68 787T91 770Q106 769 117 768Q123 769 128 769Q132 769 136 767Q148 767 156 769Q165 773 171 782T188 807Q190 824 181 836T157 853T125 859T92
854T68 836T58 805Z" />
<glyph unicode="&#xc6;" glyph-name="AE" horiz-adv-x="726" d="M316 111Q305 153 294 190T265 251Q244 241 215 234T159 217T113 189T89 141Q87 129 86 109T82 71Q79 49 77 26H26Q29 40 31 62T36 120T44 209T57 338T75 516T103 755Q104 765 112 767T128 769Q139
769 146 761T158 743T169 722T180 704Q190 681 200 651T223 587T247 519T271 452T293 392T313 346H316Q314 423 308 499T290 656Q290 658 288 664T283 676T279 687T277 695Q277 699 280 706T289 720T302 730T316 733Q328 731 335 719T347 692T352 664T354 643Q384
660 421 678T498 712T577 738T652 749Q652 740 649 733T635 721L354 580V541Q355 531 356 508T359 458T362 405T365 362Q372 364 380 367T409 381T468 410T571 464L577 471Q582 477 590 482T606 487T623 477Q625 470 608 456T564 424T505 387T446 353T400 325T382
310L380 93Q393 87 416 96T469 123T529 162T589 205T644 241T687 261Q697 261 705 257T713 240Q713 229 699 221Q668 203 629 176T547 120T464 65T388 23L316 30V111ZM141 615L139 598Q138 581 136 559T132 513T128 473Q123 417 118 363T112 251Q131 251 152 256T194
269T230 290T256 319Q248 354 239 391T218 467T194 543T166 615Q165 616 159 619T141 615Z" />
<glyph unicode="&#xc7;" glyph-name="Ccedilla" horiz-adv-x="499" d="M155 -286Q155 -283 175 -279T222 -269T274 -255T307 -234T299 -205T229 -167Q184 -167 168 -140T152 -64Q156 -25 161 -5Q154 -3 148 0Q115 0 92 18T54 64T32 122T25 179Q25 211 31 266T51
384T85 511T132 628T195 713T274 746Q299 746 316 737T345 713T362 678T368 635Q350 635 339 644T319 665T301 685T275 695Q243 695 216 665T167 587T128 483T100 371T82 272T76 205Q76 176 79 149T92 99T121 64T175 50Q215 50 254 76T328 139T387 219T423 294Q425
295 432 295T441 296Q453 296 463 294T474 275Q468 243 446 208T394 138T328 75T258 26Q229 9 202 1Q207 -14 207 -34T202 -73Q248 -105 282 -122T340 -155T375 -193T387 -259Q380 -280 356 -293T301 -313T238 -324T182 -326Q161 -326 158 -314T155 -286Z" />
<glyph unicode="&#xc8;" glyph-name="Egrave" horiz-adv-x="486" d="M72 26Q72 107 73 185T72 340T64 494T46 652Q46 654 44 660T39 672T35 684T33 691Q33 696 36 703T45 716T58 727T72 730Q84 727 91 715T103 689T108 660T110 640Q140 656 177 674T254 708T333
734T408 745Q408 736 405 729T391 717L110 576V537Q111 526 112 499T116 442T119 384T122 346L328 461L333 467Q338 473 346 478T362 483T379 473Q379 455 361 438T316 404T258 371T199 340T154 310T136 282V89Q149 84 172 93T225 120T285 159T345 202T400 238T443
257Q453 257 461 253T469 237Q469 225 455 218Q420 197 375 166T282 103T190 46T111 12Q98 12 90 14T72 26ZM212 776Q202 787 189 800T164 829T142 860T131 888V895Q131 908 136 918T156 928Q177 905 197 881T228 836T238 798T212 776Z" />
<glyph unicode="&#xc9;" glyph-name="Eacute" horiz-adv-x="486" d="M72 26Q72 107 73 185T72 340T64 494T46 652Q46 654 44 660T39 672T35 684T33 691Q33 696 36 703T45 716T58 727T72 730Q84 727 91 715T103 689T108 660T110 640Q140 656 177 674T254 708T333
734T408 745Q408 736 405 729T391 717L110 576V537Q111 526 112 499T116 442T119 384T122 346L328 461L333 467Q338 473 346 478T362 483T379 473Q379 455 361 438T316 404T258 371T199 340T154 310T136 282V89Q149 84 172 93T225 120T285 159T345 202T400 238T443
257Q453 257 461 253T469 237Q469 225 455 218Q420 197 375 166T282 103T190 46T111 12Q98 12 90 14T72 26ZM209 752Q182 758 180 773T190 807T226 849T272 893Q289 893 295 884T301 863V856Q299 844 289 830T265 802T236 775T209 752Z" />
<glyph unicode="&#xca;" glyph-name="Ecircumflex" horiz-adv-x="486" d="M72 26Q72 107 73 185T72 340T64 494T46 652Q46 654 44 660T39 672T35 684T33 691Q33 696 36 703T45 716T58 727T72 730Q84 727 91 715T103 689T108 660T110 640Q140 656 177 674T254 708T333
734T408 745Q408 736 405 729T391 717L110 576V537Q111 526 112 499T116 442T119 384T122 346L328 461L333 467Q338 473 346 478T362 483T379 473Q379 455 361 438T316 404T258 371T199 340T154 310T136 282V89Q149 84 172 93T225 120T285 159T345 202T400 238T443
257Q453 257 461 253T469 237Q469 225 455 218Q420 197 375 166T282 103T190 46T111 12Q98 12 90 14T72 26ZM77 814Q77 816 77 818T78 822L205 1059Q206 1063 216 1069T237 1075Q238 1075 240 1075T242 1074L406 883Q426 879 429 873T433 857Q433 853 432 847T426
835T416 825T399 821H395Q394 821 394 822L254 997Q249 1006 235 1006H230L116 807Q115 805 110 802T103 799Q85 799 81 803T77 814Z" />
<glyph unicode="&#xcb;" glyph-name="Edieresis" horiz-adv-x="486" d="M72 26Q72 107 73 185T72 340T64 494T46 652Q46 654 44 660T39 672T35 684T33 691Q33 696 36 703T45 716T58 727T72 730Q84 727 91 715T103 689T108 660T110 640Q140 656 177 674T254 708T333
734T408 745Q408 736 405 729T391 717L110 576V537Q111 526 112 499T116 442T119 384T122 346L328 461L333 467Q338 473 346 478T362 483T379 473Q379 455 361 438T316 404T258 371T199 340T154 310T136 282V89Q149 84 172 93T225 120T285 159T345 202T400 238T443
257Q453 257 461 253T469 237Q469 225 455 218Q420 197 375 166T282 103T190 46T111 12Q98 12 90 14T72 26ZM120 887Q134 902 144 907T170 913Q197 913 197 887Q197 881 194 874T185 860T172 849T159 848Q152 844 145 846T131 854T122 868T120 887ZM252 887Q267
902 277 907T303 913Q330 913 330 887Q330 881 327 874T317 860T304 849T291 848Q285 844 277 846T263 854T254 868T252 887Z" />
<glyph unicode="&#xcc;" glyph-name="Igrave" horiz-adv-x="157" d="M52 747Q52 755 57 758T70 762T86 762T101 761Q106 749 109 714T116 628T121 516T124 393T126 270T127 161T128 76V31Q127 11 120 8T85 12Q82 13 80 42T77 118T75 227T73 354T71 484T67 602T62
694T52 747ZM98 807Q88 818 75 831T50 860T28 891T17 919V926Q17 939 22 949T42 959Q63 936 83 912T114 867T124 829T98 807Z" />
<glyph unicode="&#xcd;" glyph-name="Iacute" horiz-adv-x="157" d="M52 747Q52 755 57 758T70 762T86 762T101 761Q106 749 109 714T116 628T121 516T124 393T126 270T127 161T128 76V31Q127 11 120 8T85 12Q82 13 80 42T77 118T75 227T73 354T71 484T67 602T62
694T52 747ZM64 815Q37 821 35 836T45 870T81 912T127 956Q144 956 150 947T156 926V919Q154 907 144 893T120 865T91 838T64 815Z" />
<glyph unicode="&#xce;" glyph-name="Icircumflex" horiz-adv-x="157" d="M52 747Q52 755 57 758T70 762T86 762T101 761Q106 749 109 714T116 628T121 516T124 393T126 270T127 161T128 76V31Q127 11 120 8T85 12Q82 13 80 42T77 118T75 227T73 354T71 484T67
602T62 694T52 747ZM179 788Q179 790 179 792T180 796L307 1033Q308 1037 318 1043T339 1049Q340 1049 342 1049T344 1048L508 857Q528 853 531 847T535 831Q535 827 534 821T528 809T518 799T501 795H497Q496 795 496 796L356 971Q351 980 337 980H332L218 781Q217
779 212 776T205 773Q187 773 183 777T179 788Z" />
<glyph unicode="&#xcf;" glyph-name="Idieresis" horiz-adv-x="157" d="M52 747Q52 755 57 758T70 762T86 762T101 761Q106 749 109 714T116 628T121 516T124 393T126 270T127 161T128 76V31Q127 11 120 8T85 12Q82 13 80 42T77 118T75 227T73 354T71 484T67 602T62
694T52 747ZM-14 879Q0 894 10 899T36 905Q63 905 63 879Q63 873 60 866T51 852T38 841T25 840Q18 836 11 838T-3 846T-12 860T-14 879ZM118 879Q133 894 143 899T169 905Q196 905 196 879Q196 873 193 866T183 852T170 841T157 840Q151 836 143 838T129 846T120
860T118 879Z" />
<glyph unicode="&#xd0;" glyph-name="Eth" horiz-adv-x="568" d="M18 214Q18 218 23 228T31 240Q62 242 84 245T124 253L98 615Q95 613 88 610T72 602T57 594T47 589Q46 589 44 589T40 588Q35 588 29 590T22 602Q22 617 28 626T45 644T68 660T90 680T107 712T114
760Q134 760 139 753T145 737T147 718T162 704Q190 705 229 704T312 698T398 681T474 650T527 600T545 525Q532 448 496 377T410 241T303 115T188 0Q187 0 185 0T182 -1Q173 -1 167 5T161 20Q161 40 186 71T248 143T329 230T410 327T472 430T497 534Q497 561 482
580T444 614T391 636T331 648T274 654T228 656Q223 656 215 656T199 655T183 653T175 652L162 640Q162 638 162 623T161 589T160 550V519Q160 454 163 391T171 265Q191 269 213 272T269 276Q274 276 277 271T282 260T283 247V240Q283 237 283 231T282 224L174 192Q175
174 175 155T175 118Q175 112 175 105T175 92T170 81T156 76Q150 76 144 79T137 89Q137 140 130 163T112 195T89 202T66 200L58 199Q50 199 41 200T25 204T18 214Z" />
<glyph unicode="&#xd1;" glyph-name="Ntilde" horiz-adv-x="554" d="M31 615V663Q43 663 58 655T87 636T113 612T132 589L427 192Q430 209 432 255T435 359T432 482T425 601T415 695T400 742Q400 757 405 770T427 783Q443 783 453 765T468 725T475 681T478 652Q479
634 480 598T482 515T484 416T487 318T489 235T491 179Q491 166 495 155T504 133T513 111T517 88Q517 68 503 59T470 49Q460 49 453 51T441 60T436 77T439 103Q428 116 405 145T354 211T293 288T232 364T180 430L146 473Q144 476 139 481L115 505Q110 510 107 512Q103
454 108 396T121 279T138 164T147 48Q147 32 144 20T120 0Q100 7 93 26T94 64L31 615ZM382 940Q396 944 408 944T426 927Q432 912 423 894T396 857T358 823T319 798Q304 794 290 796T263 803T242 817T230 834Q217 841 212 855T200 882T184 905T156 914Q135 914
126 904T111 880T99 852T79 827Q69 824 63 825T53 831T47 841T43 855Q45 886 58 907T91 940T134 957T179 960T219 950T245 928Q259 882 272 867T299 853T324 870T346 902T366 931T382 940Z" />
<glyph unicode="&#xd2;" glyph-name="Ograve" horiz-adv-x="392" d="M15 214Q27 388 65 497T153 654T258 686T357 594Q372 544 376 482T375 357T352 232T306 122T237 40T145 -1Q108 -1 83 22T43 78T22 148T15 214ZM68 220Q68 195 70 168T82 119T109 82T159 67Q194
67 223 99T273 182T306 295T321 416T316 526T286 601T231 622T148 567Q134 526 120 483T95 395T76 306T68 220ZM297 749Q287 760 274 773T249 802T227 833T216 861V868Q216 881 221 891T241 901Q262 878 282 854T313 809T323 771T297 749Z" />
<glyph unicode="&#xd3;" glyph-name="Oacute" horiz-adv-x="392" d="M15 214Q27 388 65 497T153 654T258 686T357 594Q372 544 376 482T375 357T352 232T306 122T237 40T145 -1Q108 -1 83 22T43 78T22 148T15 214ZM68 220Q68 195 70 168T82 119T109 82T159 67Q194
67 223 99T273 182T306 295T321 416T316 526T286 601T231 622T148 567Q134 526 120 483T95 395T76 306T68 220ZM155 729Q128 735 126 750T136 784T172 826T218 870Q235 870 241 861T247 840V833Q245 821 235 807T211 779T182 752T155 729Z" />
<glyph unicode="&#xd4;" glyph-name="Ocircumflex" horiz-adv-x="392" d="M15 214Q27 388 65 497T153 654T258 686T357 594Q372 544 376 482T375 357T352 232T306 122T237 40T145 -1Q108 -1 83 22T43 78T22 148T15 214ZM68 220Q68 195 70 168T82 119T109 82T159
67Q194 67 223 99T273 182T306 295T321 416T316 526T286 601T231 622T148 567Q134 526 120 483T95 395T76 306T68 220ZM276 694Q276 696 276 698T277 702L404 939Q405 943 415 949T436 955Q437 955 439 955T441 954L605 763Q625 759 628 753T632 737Q632 733 631
727T625 715T615 705T598 701H594Q593 701 593 702L453 877Q448 886 434 886H429L315 687Q314 685 309 682T302 679Q284 679 280 683T276 694Z" />
<glyph unicode="&#xd5;" glyph-name="Otilde" horiz-adv-x="392" d="M15 214Q27 388 65 497T153 654T258 686T357 594Q372 544 376 482T375 357T352 232T306 122T237 40T145 -1Q108 -1 83 22T43 78T22 148T15 214ZM68 220Q68 195 70 168T82 119T109 82T159 67Q194
67 223 99T273 182T306 295T321 416T316 526T286 601T231 622T148 567Q134 526 120 483T95 395T76 306T68 220ZM388 886Q402 890 414 890T432 873Q438 858 429 840T402 803T364 769T325 744Q310 740 296 742T269 749T248 763T236 780Q223 787 218 801T206 828T190
851T162 860Q141 860 132 850T117 826T105 798T85 773Q75 770 69 771T59 777T53 787T49 801Q51 832 64 853T97 886T140 903T185 906T225 896T251 874Q265 828 278 813T305 799T330 816T352 848T372 877T388 886Z" />
<glyph unicode="&#xd6;" glyph-name="Odieresis" horiz-adv-x="392" d="M15 214Q27 388 65 497T153 654T258 686T357 594Q372 544 376 482T375 357T352 232T306 122T237 40T145 -1Q108 -1 83 22T43 78T22 148T15 214ZM68 220Q68 195 70 168T82 119T109 82T159
67Q194 67 223 99T273 182T306 295T321 416T316 526T286 601T231 622T148 567Q134 526 120 483T95 395T76 306T68 220ZM147 797Q161 812 171 817T197 823Q224 823 224 797Q224 791 221 784T212 770T199 759T186 758Q179 754 172 756T158 764T149 778T147 797ZM279
797Q294 812 304 817T330 823Q357 823 357 797Q357 791 354 784T344 770T331 759T318 758Q312 754 304 756T290 764T281 778T279 797Z" />
<glyph unicode="&#xd7;" glyph-name="multiply" horiz-adv-x="465" d="M318 461Q333 466 343 463T357 453T358 436T346 418L247 299Q255 283 270 263T299 222T323 181T331 145Q323 129 301 135Q278 138 272 149T262 178T248 218T207 265Q186 246 161 218T120 157Q116
155 108 155T90 158T75 164T69 174L179 308L83 455V461Q83 465 84 468Q87 474 95 481T119 481Q125 471 135 454T157 418T184 382T212 351Q214 350 215 350Q216 349 218 349Q220 348 220 347T221 346T227 352T241 369T270 404T318 461Z" />
<glyph unicode="&#xd8;" glyph-name="Oslash" horiz-adv-x="392" d="M56 -46L77 27Q57 49 43 78Q28 112 22 148T15 214Q27 388 65 497T153 654T258 686Q268 683 277 679L288 715H337L316 649Q337 627 357 594Q372 544 376 482T375 357T352 232T306 122T237 40T145
-1Q129 -1 115 3L88 -86Q76 -86 66 -76T56 -53V-46ZM68 220Q68 195 70 168T82 119Q87 103 97 92L259 620Q247 625 230 622Q196 617 148 567Q134 526 120 483T95 395T76 306T68 220ZM159 67Q194 67 223 99T273 182T306 295T321 416T315 526Q309 562 296 586L136
68Q147 67 159 67Z" />
<glyph unicode="&#xd9;" glyph-name="Ugrave" horiz-adv-x="461" d="M364 268Q354 231 338 187T297 103T238 38T159 11Q124 11 103 25T69 64T52 118T44 178Q43 188 42 218T40 290T38 379T35 467T32 539T31 580Q30 590 32 595T39 603T50 606T62 607H70Q76 607 81
606T90 602T94 592V166Q94 148 99 130T115 97T140 71T174 61Q212 64 239 101T287 196T320 320T343 449T360 559T377 626Q396 643 407 635T423 609T430 571T428 541Q428 474 422 408T415 274Q415 231 419 188T428 102T437 17T441 -68Q441 -76 440 -84T436 -100T426
-112T409 -117Q409 -117 407 -117T402 -116L364 268ZM238 663Q228 674 215 687T190 716T168 747T157 775V782Q157 795 162 805T182 815Q203 792 223 768T254 723T264 685T238 663Z" />
<glyph unicode="&#xda;" glyph-name="Uacute" horiz-adv-x="461" d="M364 268Q354 231 338 187T297 103T238 38T159 11Q124 11 103 25T69 64T52 118T44 178Q43 188 42 218T40 290T38 379T35 467T32 539T31 580Q30 590 32 595T39 603T50 606T62 607H70Q76 607 81
606T90 602T94 592V166Q94 148 99 130T115 97T140 71T174 61Q212 64 239 101T287 196T320 320T343 449T360 559T377 626Q396 643 407 635T423 609T430 571T428 541Q428 474 422 408T415 274Q415 231 419 188T428 102T437 17T441 -68Q441 -76 440 -84T436 -100T426
-112T409 -117Q409 -117 407 -117T402 -116L364 268ZM220 601Q193 607 191 622T201 656T237 698T283 742Q300 742 306 733T312 712V705Q310 693 300 679T276 651T247 624T220 601Z" />
<glyph unicode="&#xdb;" glyph-name="Ucircumflex" horiz-adv-x="461" d="M364 268Q354 231 338 187T297 103T238 38T159 11Q124 11 103 25T69 64T52 118T44 178Q43 188 42 218T40 290T38 379T35 467T32 539T31 580Q30 590 32 595T39 603T50 606T62 607H70Q76
607 81 606T90 602T94 592V166Q94 148 99 130T115 97T140 71T174 61Q212 64 239 101T287 196T320 320T343 449T360 559T377 626Q396 643 407 635T423 609T430 571T428 541Q428 474 422 408T415 274Q415 231 419 188T428 102T437 17T441 -68Q441 -76 440 -84T436
-100T426 -112T409 -117Q409 -117 407 -117T402 -116L364 268ZM52 694Q52 696 52 698T53 702L180 939Q181 943 191 949T212 955Q213 955 215 955T217 954L381 763Q401 759 404 753T408 737Q408 733 407 727T401 715T391 705T374 701H370Q369 701 369 702L229 877Q224
886 210 886H205L91 687Q90 685 85 682T78 679Q60 679 56 683T52 694Z" />
<glyph unicode="&#xdc;" glyph-name="Udieresis" horiz-adv-x="461" d="M364 268Q354 231 338 187T297 103T238 38T159 11Q124 11 103 25T69 64T52 118T44 178Q43 188 42 218T40 290T38 379T35 467T32 539T31 580Q30 590 32 595T39 603T50 606T62 607H70Q76 607
81 606T90 602T94 592V166Q94 148 99 130T115 97T140 71T174 61Q212 64 239 101T287 196T320 320T343 449T360 559T377 626Q396 643 407 635T423 609T430 571T428 541Q428 474 422 408T415 274Q415 231 419 188T428 102T437 17T441 -68Q441 -76 440 -84T436 -100T426
-112T409 -117Q409 -117 407 -117T402 -116L364 268ZM128 739Q142 754 152 759T178 765Q205 765 205 739Q205 733 202 726T193 712T180 701T167 700Q160 696 153 698T139 706T130 720T128 739ZM260 739Q275 754 285 759T311 765Q338 765 338 739Q338 733 335 726T325
712T312 701T299 700Q293 696 285 698T271 706T262 720T260 739Z" />
<glyph unicode="&#xdd;" glyph-name="Yacute" horiz-adv-x="495" d="M192 25Q192 61 203 95T227 165T249 234T256 307Q227 339 192 376T123 454T60 538T13 627Q12 628 12 630V634Q12 646 21 650T40 654Q66 623 95 584T156 505T219 431T282 372H295Q299 379 309
406T333 472T364 556T394 646T419 730T435 794Q436 796 441 796Q456 796 465 783T473 755Q446 660 429 599T400 500T380 438T364 393T346 347T322 279T285 170T230 0Q229 0 225 0T218 -1Q192 -1 192 25ZM252 827Q225 833 223 848T233 882T269 924T315 968Q332 968
338 959T344 938V931Q342 919 332 905T308 877T279 850T252 827Z" />
<glyph unicode="&#xde;" glyph-name="Thorn" horiz-adv-x="408" d="M50 20Q41 18 37 51T31 144T31 282T35 452T43 638T53 826Q83 828 96 826T111 814T110 787T101 739T95 667T102 564Q132 604 154 623T196 651T239 662T292 670Q323 665 342 648T371 606T385 555T387
504Q386 474 381 442T347 374T261 292T93 193Q91 193 91 181T90 150T92 110T93 71T94 40T93 28L50 20ZM89 253Q94 257 113 264T158 284T215 315T271 361T315 426T337 512Q337 526 333 542T321 572T299 595T268 605Q231 605 204 591T157 555T121 504T93 446L89 253Z"
/>
<glyph unicode="&#xdf;" glyph-name="germandbls" horiz-adv-x="550" d="M39 615Q31 630 28 641T25 667Q25 672 25 677T28 686T36 692T51 691Q57 689 63 684T74 670T83 653T89 640Q112 658 139 676T196 709T258 733T319 742Q329 742 343 740T369 733T390 720T399
698Q402 674 394 650T371 602T338 557T301 515T267 478T243 448Q284 475 331 487T427 500Q442 500 459 499T492 491T517 474T527 443Q527 423 509 388T461 310T396 224T327 145T268 87T230 64L204 76Q209 95 229 121T276 175T335 234T395 294T444 350T471 400T466
438T417 462Q378 462 335 449T253 410T184 351T139 273Q139 245 143 218T153 165T162 111T167 57Q167 37 164 24T139 11Q137 11 133 11T128 13L39 615ZM103 552Q103 515 108 474T128 397Q143 410 165 431T212 478T260 531T303 585T334 633T346 671Q346 683 339
687T321 691Q297 691 260 681T188 653T128 610T103 552Z" />
<glyph unicode="&#xe0;" glyph-name="agrave" horiz-adv-x="375" d="M310 26Q305 52 302 88T294 162T285 233T268 287Q217 183 178 124T110 39T60 14T27 32T9 75T1 125Q1 147 11 187T38 274T78 371T129 460T185 526T243 552Q286 559 306 534T314 448Q314 382 319
335T331 245T343 155T349 42Q349 30 347 22T322 13Q319 13 315 18T310 26ZM256 473Q245 489 226 476T186 433T143 361T102 276T69 195T50 131Q50 95 61 91T88 102T124 148T164 212T201 278T229 330Q238 351 243 369T251 403T255 437T256 473ZM196 605Q186 616 173
629T148 658T126 689T115 717V724Q115 737 120 747T140 757Q161 734 181 710T212 665T222 627T196 605Z" />
<glyph unicode="&#xe1;" glyph-name="aacute" horiz-adv-x="375" d="M310 26Q305 52 302 88T294 162T285 233T268 287Q217 183 178 124T110 39T60 14T27 32T9 75T1 125Q1 147 11 187T38 274T78 371T129 460T185 526T243 552Q286 559 306 534T314 448Q314 382 319
335T331 245T343 155T349 42Q349 30 347 22T322 13Q319 13 315 18T310 26ZM256 473Q245 489 226 476T186 433T143 361T102 276T69 195T50 131Q50 95 61 91T88 102T124 148T164 212T201 278T229 330Q238 351 243 369T251 403T255 437T256 473ZM178 601Q151 607 149
622T159 656T195 698T241 742Q258 742 264 733T270 712V705Q268 693 258 679T234 651T205 624T178 601Z" />
<glyph unicode="&#xe2;" glyph-name="acircumflex" horiz-adv-x="375" d="M310 26Q305 52 302 88T294 162T285 233T268 287Q217 183 178 124T110 39T60 14T27 32T9 75T1 125Q1 147 11 187T38 274T78 371T129 460T185 526T243 552Q286 559 306 534T314 448Q314
382 319 335T331 245T343 155T349 42Q349 30 347 22T322 13Q319 13 315 18T310 26ZM256 473Q245 489 226 476T186 433T143 361T102 276T69 195T50 131Q50 95 61 91T88 102T124 148T164 212T201 278T229 330Q238 351 243 369T251 403T255 437T256 473ZM268 694Q268
696 268 698T269 702L396 939Q397 943 407 949T428 955Q429 955 431 955T433 954L597 763Q617 759 620 753T624 737Q624 733 623 727T617 715T607 705T590 701H586Q585 701 585 702L445 877Q440 886 426 886H421L307 687Q306 685 301 682T294 679Q276 679 272 683T268
694Z" />
<glyph unicode="&#xe3;" glyph-name="atilde" horiz-adv-x="375" d="M310 26Q305 52 302 88T294 162T285 233T268 287Q217 183 178 124T110 39T60 14T27 32T9 75T1 125Q1 147 11 187T38 274T78 371T129 460T185 526T243 552Q286 559 306 534T314 448Q314 382 319
335T331 245T343 155T349 42Q349 30 347 22T322 13Q319 13 315 18T310 26ZM256 473Q245 489 226 476T186 433T143 361T102 276T69 195T50 131Q50 95 61 91T88 102T124 148T164 212T201 278T229 330Q238 351 243 369T251 403T255 437T256 473ZM621 753Q635 757 647
757T665 740Q671 725 662 707T635 670T597 636T558 611Q543 607 529 609T502 616T481 630T469 647Q456 654 451 668T439 695T423 718T395 727Q374 727 365 717T350 693T338 665T318 640Q308 637 302 638T292 644T286 654T282 668Q284 699 297 720T330 753T373 770T418
773T458 763T484 741Q498 695 511 680T538 666T563 683T585 715T605 744T621 753Z" />
<glyph unicode="&#xe4;" glyph-name="adieresis" horiz-adv-x="375" d="M310 26Q305 52 302 88T294 162T285 233T268 287Q217 183 178 124T110 39T60 14T27 32T9 75T1 125Q1 147 11 187T38 274T78 371T129 460T185 526T243 552Q286 559 306 534T314 448Q314 382
319 335T331 245T343 155T349 42Q349 30 347 22T322 13Q319 13 315 18T310 26ZM256 473Q245 489 226 476T186 433T143 361T102 276T69 195T50 131Q50 95 61 91T88 102T124 148T164 212T201 278T229 330Q238 351 243 369T251 403T255 437T256 473ZM85 739Q99 754
109 759T135 765Q162 765 162 739Q162 733 159 726T150 712T137 701T124 700Q117 696 110 698T96 706T87 720T85 739ZM217 739Q232 754 242 759T268 765Q295 765 295 739Q295 733 292 726T282 712T269 701T256 700Q250 696 242 698T228 706T219 720T217 739Z" />
<glyph unicode="&#xe5;" glyph-name="aring" horiz-adv-x="375" d="M92 592Q84 611 89 629T112 662T157 686T218 695Q240 695 255 692T281 683T300 670T315 653Q326 622 326 597T311 553Q306 546 298 542Q302 538 306 534Q327 508 314 448Q314 382 319 335T331
245T343 155T349 42Q349 30 347 22T322 13Q319 13 315 18T310 26Q305 52 302 88T294 162T285 233T268 287Q217 183 178 124T110 39T60 14T27 32T9 75T1 125Q1 147 11 187T38 274T78 371T129 460Q152 495 177 519Q173 519 167 520Q145 520 130 528T107 548T95 572T92
592ZM256 473Q245 489 226 476T186 433T143 361T102 276T69 195T50 131Q50 95 61 91T88 102T124 148T164 212T201 278T229 330Q238 351 243 369T251 403T255 437T256 473ZM143 594Q143 583 153 577T175 560Q202 557 216 557T240 559T255 571T273 597Q274 614 265
625T242 643T210 649T177 643T152 625T143 594Z" />
<glyph unicode="&#xe6;" glyph-name="ae" horiz-adv-x="722" d="M310 26Q305 52 302 88T294 162T284 233Q283 238 283 243Q278 243 274 244Q263 245 254 249Q252 250 251 252Q210 172 177 123Q139 64 110 39T60 14T27 32T9 75T1 125Q1 147 11 187T38 274T78 371T129
460T185 526T243 552Q286 559 306 534T314 448Q314 407 316 373Q320 382 324 393Q337 426 351 458T385 516T433 558T501 573Q518 573 539 566T579 544T609 511T621 470Q625 462 611 447T572 415T515 379T455 344T404 316T374 298Q370 287 367 275T363 250T361 229T360
214Q360 195 358 172T360 129T377 96T420 82Q454 82 483 98T537 138T582 191T619 243T648 283T670 300Q680 300 692 296T704 280Q704 262 690 237T651 184T597 129T536 80T475 45T422 31Q377 31 354 52Q351 55 349 58V42Q349 30 347 22T322 13Q319 13 315 18T310
26ZM256 473Q245 489 226 476T186 433T143 361T102 276T69 195T50 131Q50 95 61 91T88 102T124 148T164 212T201 278T229 330Q238 351 243 369T251 403T255 437T256 473ZM494 517Q477 517 458 501T422 461T395 413T384 373Q400 373 428 384T484 412T533 448T554
484Q554 493 548 499T532 510T512 515T494 517Z" />
<glyph unicode="&#xe7;" glyph-name="ccedilla" horiz-adv-x="400" d="M110 -271Q110 -267 130 -263T177 -254T229 -239T262 -218T254 -190T184 -151Q139 -151 123 -124T107 -49Q111 -12 116 9Q103 15 94 25Q67 51 53 87T32 162T26 230Q29 266 32 308T41 393T58
473T86 540T130 587T193 604Q218 604 231 583T250 532T256 471T257 419Q237 419 224 436T204 477T194 522L191 551Q190 551 188 551T184 552Q167 552 153 533T126 485T104 419T89 347T80 283T76 237Q74 211 76 180T88 122T116 76T164 49Q201 49 224 59T261 86T284
124T299 167T315 212T338 253Q350 256 355 253T363 243T365 229V218Q365 176 351 137T310 68T246 19T161 0Q162 -9 162 -19Q163 -40 157 -58Q203 -90 237 -106T295 -139T330 -178T342 -244Q335 -265 311 -278T256 -298T193 -308T137 -311Q116 -311 113 -299T110
-271Z" />
<glyph unicode="&#xe8;" glyph-name="egrave" horiz-adv-x="473" d="M55 216Q50 215 40 213T19 212T0 218T-9 235Q-9 242 -6 245T4 254Q26 272 41 300T70 361T97 426T131 485T178 527T247 542Q264 542 285 534T324 513T354 480T366 438Q371 430 357 415T317 383T261
347T200 312T149 284T120 266Q115 256 112 243T108 219T106 198T105 183Q105 164 104 141T105 98T122 64T166 50Q199 50 228 66T282 107T327 159T364 211T394 252T416 268Q426 268 437 265T449 248Q449 230 435 205T397 152T343 97T281 48T220 13T167 -1Q122 -1
99 21T67 76T57 146T55 216ZM239 486Q222 486 203 470T168 430T141 382T130 341Q145 341 173 352T230 381T279 417T300 453Q300 462 293 468T277 478T257 484T239 486ZM245 605Q235 616 222 629T197 658T175 689T164 717V724Q164 737 169 747T189 757Q210 734 230
710T261 665T271 627T245 605Z" />
<glyph unicode="&#xe9;" glyph-name="eacute" horiz-adv-x="473" d="M55 216Q50 215 40 213T19 212T0 218T-9 235Q-9 242 -6 245T4 254Q26 272 41 300T70 361T97 426T131 485T178 527T247 542Q264 542 285 534T324 513T354 480T366 438Q371 430 357 415T317 383T261
347T200 312T149 284T120 266Q115 256 112 243T108 219T106 198T105 183Q105 164 104 141T105 98T122 64T166 50Q199 50 228 66T282 107T327 159T364 211T394 252T416 268Q426 268 437 265T449 248Q449 230 435 205T397 152T343 97T281 48T220 13T167 -1Q122 -1
99 21T67 76T57 146T55 216ZM239 486Q222 486 203 470T168 430T141 382T130 341Q145 341 173 352T230 381T279 417T300 453Q300 462 293 468T277 478T257 484T239 486ZM226 601Q199 607 197 622T207 656T243 698T289 742Q306 742 312 733T318 712V705Q316 693 306
679T282 651T253 624T226 601Z" />
<glyph unicode="&#xea;" glyph-name="ecircumflex" horiz-adv-x="473" d="M55 216Q50 215 40 213T19 212T0 218T-9 235Q-9 242 -6 245T4 254Q26 272 41 300T70 361T97 426T131 485T178 527T247 542Q264 542 285 534T324 513T354 480T366 438Q371 430 357 415T317
383T261 347T200 312T149 284T120 266Q115 256 112 243T108 219T106 198T105 183Q105 164 104 141T105 98T122 64T166 50Q199 50 228 66T282 107T327 159T364 211T394 252T416 268Q426 268 437 265T449 248Q449 230 435 205T397 152T343 97T281 48T220 13T167 -1Q122
-1 99 21T67 76T57 146T55 216ZM239 486Q222 486 203 470T168 430T141 382T130 341Q145 341 173 352T230 381T279 417T300 453Q300 462 293 468T277 478T257 484T239 486ZM59 694Q59 696 59 698T60 702L187 939Q188 943 198 949T219 955Q220 955 222 955T224 954L388
763Q408 759 411 753T415 737Q415 733 414 727T408 715T398 705T381 701H377Q376 701 376 702L236 877Q231 886 217 886H212L98 687Q97 685 92 682T85 679Q67 679 63 683T59 694Z" />
<glyph unicode="&#xeb;" glyph-name="edieresis" horiz-adv-x="473" d="M55 216Q50 215 40 213T19 212T0 218T-9 235Q-9 242 -6 245T4 254Q26 272 41 300T70 361T97 426T131 485T178 527T247 542Q264 542 285 534T324 513T354 480T366 438Q371 430 357 415T317
383T261 347T200 312T149 284T120 266Q115 256 112 243T108 219T106 198T105 183Q105 164 104 141T105 98T122 64T166 50Q199 50 228 66T282 107T327 159T364 211T394 252T416 268Q426 268 437 265T449 248Q449 230 435 205T397 152T343 97T281 48T220 13T167 -1Q122
-1 99 21T67 76T57 146T55 216ZM239 486Q222 486 203 470T168 430T141 382T130 341Q145 341 173 352T230 381T279 417T300 453Q300 462 293 468T277 478T257 484T239 486ZM134 739Q148 754 158 759T184 765Q211 765 211 739Q211 733 208 726T199 712T186 701T173
700Q166 696 159 698T145 706T136 720T134 739ZM266 739Q281 754 291 759T317 765Q344 765 344 739Q344 733 341 726T331 712T318 701T305 700Q299 696 291 698T277 706T268 720T266 739Z" />
<glyph unicode="&#xec;" glyph-name="igrave" horiz-adv-x="136" d="M42 20Q42 85 40 157T35 302T33 447T42 580Q44 581 51 581T62 582Q76 582 84 578T93 558Q93 499 93 430T92 289T91 147T93 20Q94 3 87 -2T68 -8Q56 -8 48 -3T42 20ZM73 682Q63 693 50 707T25
736T3 766T-8 795V802Q-8 814 -3 824T17 834Q38 812 58 788T89 742T99 705T73 682Z" />
<glyph unicode="&#xed;" glyph-name="iacute" horiz-adv-x="136" d="M42 20Q42 85 40 157T35 302T33 447T42 580Q44 581 51 581T62 582Q76 582 84 578T93 558Q93 499 93 430T92 289T91 147T93 20Q94 3 87 -2T68 -8Q56 -8 48 -3T42 20ZM58 722Q31 727 29 742T39
777T75 818T121 862Q138 862 144 853T150 832V825Q148 814 138 800T114 772T85 745T58 722Z" />
<glyph unicode="&#xee;" glyph-name="icircumflex" horiz-adv-x="136" d="M42 20Q42 85 40 157T35 302T33 447T42 580Q44 581 51 581T62 582Q76 582 84 578T93 558Q93 499 93 430T92 289T91 147T93 20Q94 3 87 -2T68 -8Q56 -8 48 -3T42 20ZM-110 694Q-110 696
-110 698T-109 702L18 939Q20 943 30 949T50 955Q51 955 53 955T56 954L220 763Q239 759 243 753T247 737Q247 733 245 727T239 715T229 705T212 701H209Q207 701 207 702L67 877Q62 886 49 886H43L-70 687Q-72 685 -77 682T-84 679Q-102 679 -106 683T-110 694Z"
/>
<glyph unicode="&#xef;" glyph-name="idieresis" horiz-adv-x="136" d="M42 20Q42 85 40 157T35 302T33 447T42 580Q44 581 51 581T62 582Q76 582 84 578T93 558Q93 499 93 430T92 289T91 147T93 20Q94 3 87 -2T68 -8Q56 -8 48 -3T42 20ZM-34 739Q-20 754 -10
759T16 765Q43 765 43 739Q43 733 40 726T30 712T18 701T4 700Q-2 696 -9 698T-23 706T-33 720T-34 739ZM98 739Q112 754 122 759T148 765Q175 765 175 739Q175 733 172 726T163 712T150 701T137 700Q130 696 123 698T109 706T100 720T98 739Z" />
<glyph unicode="&#xf0;" glyph-name="eth" horiz-adv-x="493" d="M417 423L344 407Q385 320 388 248T366 121T294 32T190 -10Q148 5 122 35T82 102T69 176T79 245T111 296T162 316Q189 316 217 303T268 271T309 231T330 193Q344 196 344 217T337 268T316 334T292
401L141 383Q141 384 139 389T135 399Q135 401 134 407T132 419T136 431T148 437Q181 443 209 446T265 452Q249 481 230 516T188 593Q188 594 187 597T185 603Q184 610 187 617T202 626Q206 627 212 627T224 627T234 625T240 622L320 455Q337 456 347 457T365 459T379
461T396 464T421 468T461 473Q486 459 486 451T473 437T444 429T417 423ZM229 53Q269 76 283 99T295 145T274 187T235 220T190 238T153 239Q137 234 126 212T115 161T128 104T173 57Q176 54 183 54T199 54T215 55T229 53Z" />
<glyph unicode="&#xf1;" glyph-name="ntilde" horiz-adv-x="495" d="M68 13Q57 148 49 283T30 565Q30 589 56 589H64Q67 589 71 581T79 552T89 487T103 373T121 198Q142 266 154 330T185 446T238 539T338 598Q374 592 396 555T431 462T449 343T455 219T456 114T458
47Q455 39 449 33T436 25T421 23T408 34Q408 45 406 79T401 158T395 255T389 352T384 432T381 477Q360 514 340 519T299 506T259 451T223 368T191 270T165 172T147 86T137 26Q134 19 125 13T105 3T84 1T68 13ZM411 835Q425 839 437 839T455 822Q461 807 452 789T425
752T387 718T348 693Q333 689 319 691T292 698T271 712T259 729Q246 736 241 750T229 777T213 800T185 809Q164 809 155 799T140 775T128 747T108 722Q98 719 92 720T82 726T76 736T72 750Q74 781 87 802T120 835T163 852T208 855T248 845T274 823Q288 777 301
762T328 748T353 765T375 797T395 826T411 835Z" />
<glyph unicode="&#xf2;" glyph-name="ograve" horiz-adv-x="273" d="M25 137Q18 183 18 226T23 315T39 408T64 513Q64 524 70 533T86 549T107 560T128 564Q150 564 168 550T200 516T225 474T243 435Q251 400 254 356T255 265T241 175T210 93T159 31T84 0Q61 0
49 15T32 53T26 99T25 137ZM76 140Q76 130 76 121T78 104T82 86T89 64H95Q119 64 136 80T165 121T185 178T197 240T203 297T205 340V360Q205 373 204 389T201 423T193 455T180 479T159 488Q137 495 122 485T97 452T82 394T76 319T75 232T76 140ZM145 605Q135 616
122 629T97 658T75 689T64 717V724Q64 737 69 747T89 757Q110 734 130 710T161 665T171 627T145 605Z" />
<glyph unicode="&#xf3;" glyph-name="oacute" horiz-adv-x="273" d="M25 137Q18 183 18 226T23 315T39 408T64 513Q64 524 70 533T86 549T107 560T128 564Q150 564 168 550T200 516T225 474T243 435Q251 400 254 356T255 265T241 175T210 93T159 31T84 0Q61 0
49 15T32 53T26 99T25 137ZM76 140Q76 130 76 121T78 104T82 86T89 64H95Q119 64 136 80T165 121T185 178T197 240T203 297T205 340V360Q205 373 204 389T201 423T193 455T180 479T159 488Q137 495 122 485T97 452T82 394T76 319T75 232T76 140ZM126 601Q99 607
97 622T107 656T143 698T189 742Q206 742 212 733T218 712V705Q216 693 206 679T182 651T153 624T126 601Z" />
<glyph unicode="&#xf4;" glyph-name="ocircumflex" horiz-adv-x="273" d="M25 137Q18 183 18 226T23 315T39 408T64 513Q64 524 70 533T86 549T107 560T128 564Q150 564 168 550T200 516T225 474T243 435Q251 400 254 356T255 265T241 175T210 93T159 31T84 0Q61
0 49 15T32 53T26 99T25 137ZM76 140Q76 130 76 121T78 104T82 86T89 64H95Q119 64 136 80T165 121T185 178T197 240T203 297T205 340V360Q205 373 204 389T201 423T193 455T180 479T159 488Q137 495 122 485T97 452T82 394T76 319T75 232T76 140ZM217 694Q217
696 217 698T218 702L345 939Q346 943 356 949T377 955Q378 955 380 955T382 954L546 763Q566 759 569 753T573 737Q573 733 572 727T566 715T556 705T539 701H535Q534 701 534 702L394 877Q389 886 375 886H370L256 687Q255 685 250 682T243 679Q225 679 221 683T217
694Z" />
<glyph unicode="&#xf5;" glyph-name="otilde" horiz-adv-x="273" d="M25 137Q18 183 18 226T23 315T39 408T64 513Q64 524 70 533T86 549T107 560T128 564Q150 564 168 550T200 516T225 474T243 435Q251 400 254 356T255 265T241 175T210 93T159 31T84 0Q61 0
49 15T32 53T26 99T25 137ZM76 140Q76 130 76 121T78 104T82 86T89 64H95Q119 64 136 80T165 121T185 178T197 240T203 297T205 340V360Q205 373 204 389T201 423T193 455T180 479T159 488Q137 495 122 485T97 452T82 394T76 319T75 232T76 140ZM566 761Q580 765
592 765T610 748Q616 733 607 715T580 678T542 644T503 619Q488 615 474 617T447 624T426 638T414 655Q401 662 396 676T384 703T368 726T340 735Q319 735 310 725T295 701T283 673T263 648Q253 645 247 646T237 652T231 662T227 676Q229 707 242 728T275 761T318
778T363 781T403 771T429 749Q443 703 456 688T483 674T508 691T530 723T550 752T566 761Z" />
<glyph unicode="&#xf6;" glyph-name="odieresis" horiz-adv-x="273" d="M25 137Q18 183 18 226T23 315T39 408T64 513Q64 524 70 533T86 549T107 560T128 564Q150 564 168 550T200 516T225 474T243 435Q251 400 254 356T255 265T241 175T210 93T159 31T84 0Q61
0 49 15T32 53T26 99T25 137ZM76 140Q76 130 76 121T78 104T82 86T89 64H95Q119 64 136 80T165 121T185 178T197 240T203 297T205 340V360Q205 373 204 389T201 423T193 455T180 479T159 488Q137 495 122 485T97 452T82 394T76 319T75 232T76 140ZM292 739Q306
754 316 759T342 765Q369 765 369 739Q369 733 366 726T357 712T344 701T331 700Q324 696 317 698T303 706T294 720T292 739ZM424 739Q439 754 449 759T475 765Q502 765 502 739Q502 733 499 726T489 712T476 701T463 700Q457 696 449 698T435 706T426 720T424
739Z" />
<glyph unicode="&#xf7;" glyph-name="divide" horiz-adv-x="354" d="M150 148Q150 163 155 171T177 180Q203 180 203 153Q203 140 194 127T170 114Q155 114 153 125T150 148ZM136 404Q136 417 139 426T163 435Q184 435 187 427T190 405Q190 394 188 383T170 371Q136
371 136 404ZM280 281Q280 284 285 294T294 307Q338 310 371 314T435 322T497 330T568 333Q574 333 577 328T581 317T583 304V297Q583 293 582 288T581 281L357 268Q355 267 344 267T328 266L320 265Q313 265 304 266T288 270T280 281Z" />
<glyph unicode="&#xf8;" glyph-name="oslash" horiz-adv-x="273" d="M-3 -50L32 49Q31 50 31 53Q26 76 26 99T25 137Q18 183 18 226T23 315T39 408T64 513Q64 524 70 533T86 549T107 560T128 564Q150 564 168 550Q185 536 200 517L228 595H276L229 464Q237 447
243 435Q251 400 254 356T255 265T241 175T210 93T159 31T84 0Q71 0 62 4L30 -85Q17 -85 7 -77T-3 -57V-50ZM180 479Q172 488 159 488Q137 495 122 485T97 452T82 394T76 319T75 232Q76 200 76 168L184 473L180 479ZM89 64H95Q119 64 136 80T165 121T185 178T197
240T203 297T205 340V360Q205 373 204 390Q204 392 203 395L86 71Q87 67 89 64Z" />
<glyph unicode="&#xf9;" glyph-name="ugrave" horiz-adv-x="397" d="M280 116Q276 104 261 84T224 43T181 7T141 -9Q109 -9 89 21T57 98T42 202T37 315T36 415T33 483Q37 493 43 495T59 497Q67 497 73 495T85 483Q85 472 85 446T88 388T92 320T95 252T98 195T101
157Q102 150 103 134T108 101T117 69T132 54Q147 54 162 67T193 100T221 144T244 190T260 231T267 257Q269 274 271 305T274 373T275 441T276 490L331 487Q332 406 330 341T329 218T338 106T367 -6Q364 -9 355 -14T342 -20Q317 -20 309 -4T298 35T294 80T280 116ZM207
605Q197 616 184 629T159 658T137 689T126 717V724Q126 737 131 747T151 757Q172 734 192 710T223 665T233 627T207 605Z" />
<glyph unicode="&#xfa;" glyph-name="uacute" horiz-adv-x="397" d="M280 116Q276 104 261 84T224 43T181 7T141 -9Q109 -9 89 21T57 98T42 202T37 315T36 415T33 483Q37 493 43 495T59 497Q67 497 73 495T85 483Q85 472 85 446T88 388T92 320T95 252T98 195T101
157Q102 150 103 134T108 101T117 69T132 54Q147 54 162 67T193 100T221 144T244 190T260 231T267 257Q269 274 271 305T274 373T275 441T276 490L331 487Q332 406 330 341T329 218T338 106T367 -6Q364 -9 355 -14T342 -20Q317 -20 309 -4T298 35T294 80T280 116ZM188
601Q161 607 159 622T169 656T205 698T251 742Q268 742 274 733T280 712V705Q278 693 268 679T244 651T215 624T188 601Z" />
<glyph unicode="&#xfb;" glyph-name="ucircumflex" horiz-adv-x="397" d="M280 116Q276 104 261 84T224 43T181 7T141 -9Q109 -9 89 21T57 98T42 202T37 315T36 415T33 483Q37 493 43 495T59 497Q67 497 73 495T85 483Q85 472 85 446T88 388T92 320T95 252T98
195T101 157Q102 150 103 134T108 101T117 69T132 54Q147 54 162 67T193 100T221 144T244 190T260 231T267 257Q269 274 271 305T274 373T275 441T276 490L331 487Q332 406 330 341T329 218T338 106T367 -6Q364 -9 355 -14T342 -20Q317 -20 309 -4T298 35T294 80T280
116ZM279 694Q279 696 279 698T280 702L407 939Q408 943 418 949T439 955Q440 955 442 955T444 954L608 763Q628 759 631 753T635 737Q635 733 634 727T628 715T618 705T601 701H597Q596 701 596 702L456 877Q451 886 437 886H432L318 687Q317 685 312 682T305
679Q287 679 283 683T279 694Z" />
<glyph unicode="&#xfc;" glyph-name="udieresis" horiz-adv-x="397" d="M280 116Q276 104 261 84T224 43T181 7T141 -9Q109 -9 89 21T57 98T42 202T37 315T36 415T33 483Q37 493 43 495T59 497Q67 497 73 495T85 483Q85 472 85 446T88 388T92 320T95 252T98 195T101
157Q102 150 103 134T108 101T117 69T132 54Q147 54 162 67T193 100T221 144T244 190T260 231T267 257Q269 274 271 305T274 373T275 441T276 490L331 487Q332 406 330 341T329 218T338 106T367 -6Q364 -9 355 -14T342 -20Q317 -20 309 -4T298 35T294 80T280 116ZM96
739Q110 754 120 759T146 765Q173 765 173 739Q173 733 170 726T161 712T148 701T135 700Q128 696 121 698T107 706T98 720T96 739ZM228 739Q243 754 253 759T279 765Q306 765 306 739Q306 733 303 726T293 712T280 701T267 700Q261 696 253 698T239 706T230 720T228
739Z" />
<glyph unicode="&#xfd;" glyph-name="yacute" horiz-adv-x="372" d="M283 4L25 417Q24 418 23 424T22 435Q22 448 26 457T50 467Q54 467 64 463T76 454Q98 419 121 376T170 290T224 208T283 140L307 532Q308 532 312 532T319 533Q328 533 337 531T350 517Q351
481 351 428T349 319T346 212T343 129Q342 109 340 69T334 -21T326 -128T317 -234T310 -324T305 -383H253L283 4ZM176 601Q149 607 147 622T157 656T193 698T239 742Q256 742 262 733T268 712V705Q266 693 256 679T232 651T203 624T176 601Z" />
<glyph unicode="&#xfe;" glyph-name="thorn" horiz-adv-x="450" d="M36 -9Q43 61 46 117T49 222T46 316T40 410T34 515T31 641Q33 654 37 662T63 665Q84 661 88 643T90 601T83 554T84 517Q115 540 144 561T205 598T270 619T347 616Q394 605 412 584T429 533T406
470T355 401T287 331T214 268T147 216T97 183Q95 165 94 138T91 82T87 26L85 -19Q84 -20 79 -21T66 -23T54 -23T45 -23Q42 -23 39 -18T36 -9ZM88 418Q85 403 86 383T91 341T97 297T101 260Q139 289 182 315T265 372T334 442T376 535Q381 557 373 564T347 575Q310
583 268 574T188 542T124 488T88 418Z" />
<glyph unicode="&#xff;" glyph-name="ydieresis" horiz-adv-x="372" d="M283 4L25 417Q24 418 23 424T22 435Q22 448 26 457T50 467Q54 467 64 463T76 454Q98 419 121 376T170 290T224 208T283 140L307 532Q308 532 312 532T319 533Q328 533 337 531T350 517Q351
481 351 428T349 319T346 212T343 129Q342 109 340 69T334 -21T326 -128T317 -234T310 -324T305 -383H253L283 4ZM84 739Q98 754 108 759T134 765Q161 765 161 739Q161 733 158 726T149 712T136 701T123 700Q116 696 109 698T95 706T86 720T84 739ZM216 739Q231
754 241 759T267 765Q294 765 294 739Q294 733 291 726T281 712T268 701T255 700Q249 696 241 698T227 706T218 720T216 739Z" />
<glyph unicode="&#x2013;" glyph-name="endash" horiz-adv-x="409" d="M13 204Q13 208 18 218T26 230Q70 233 114 249T203 283T289 317T372 333Q377 333 380 328T384 317T386 304V297Q386 293 385 288T384 281L89 192Q87 191 77 191T60 190L52 189Q45 189 36 190T20
194T13 204Z" />
<glyph unicode="&#x2014;" glyph-name="emdash" horiz-adv-x="563" d="M13 204Q13 208 18 218T26 230Q56 232 94 239T176 255T264 275T351 293T429 308T493 314Q499 314 502 309T506 298T508 285V278Q508 274 507 269T506 262L89 192Q87 191 77 191T60 190L52
189Q45 189 36 190T20 194T13 204Z" />
<glyph unicode="&#x2018;" glyph-name="quoteleft" horiz-adv-x="159" d="M59 384Q58 392 56 409T52 448T46 493T41 538T36 577T33 602V609Q33 622 38 632T58 642Q74 642 83 629T96 597T102 555T103 511T101 475T99 454V432Q99 417 99 400T98 367T97 346Q82 347
72 358T59 384Z" />
<glyph unicode="&#x2019;" glyph-name="quoteright" horiz-adv-x="159" d="M59 384Q58 392 56 409T52 448T46 493T41 538T36 577T33 602V609Q33 622 38 632T58 642Q74 642 83 629T96 597T102 555T103 511T101 475T99 454V432Q99 417 99 400T98 367T97 346Q82 347
72 358T59 384Z" />
<glyph unicode="&#x201a;" glyph-name="quotesinglbase" horiz-adv-x="159" d="M69 27Q68 35 66 52T61 90T56 135T51 180T46 219T43 245V252Q43 265 48 274T68 284Q84 284 93 272T106 240T111 198T112 154T111 118T109 97V75Q109 59 109 42T108 10T107 -12Q92
-10 82 1T69 27Z" />
<glyph unicode="&#x201c;" glyph-name="quotedblleft" horiz-adv-x="218" d="M26 795Q30 805 37 806T52 808Q64 808 71 804T77 781Q82 722 86 669T90 560Q90 553 90 545T90 530T84 517T70 511Q63 511 58 527T50 571T43 630T38 693T33 752T26 795ZM141 795Q149
797 156 795T169 788T177 778T180 769V543Q165 543 153 551T141 576V795Z" />
<glyph unicode="&#x201d;" glyph-name="quotedblright" horiz-adv-x="218" d="M26 795Q30 805 37 806T52 808Q64 808 71 804T77 781Q82 722 86 669T90 560Q90 553 90 545T90 530T84 517T70 511Q63 511 58 527T50 571T43 630T38 693T33 752T26 795ZM141 795Q149
797 156 795T169 788T177 778T180 769V543Q165 543 153 551T141 576V795Z" />
<glyph unicode="&#x201e;" glyph-name="quotedblbase" horiz-adv-x="218" d="M29 277Q32 287 39 289T55 291Q67 291 74 287T80 264Q85 204 89 152T93 42Q93 36 93 28T93 12T87 -1T73 -6Q66 -6 61 10T53 53T46 112T40 176T35 235T29 277ZM144 277Q152 280 159 277T171
270T180 260T183 251V25Q167 25 156 33T144 58V277Z" />
<glyph unicode="&#x2022;" glyph-name="bullet" horiz-adv-x="194" d="M40 318Q51 334 60 344T79 361T99 370T123 373Q167 373 167 318Q167 308 162 292T147 262T126 241T103 239Q93 230 80 234T57 250T42 280T40 318Z" />
<glyph unicode="&#x2039;" glyph-name="guilsinglleft" horiz-adv-x="419" d="M51 366Q52 368 52 369L355 621Q360 626 363 632T370 643T379 650T394 649Q408 644 409 633T407 608Q406 607 406 605Q406 604 405 603Q372 557 340 528T272 474T199 423T116 357L123
341Q124 339 145 326T194 295T252 259T301 230Q305 228 316 223T341 213T367 204T384 198Q387 187 388 180T385 164Q381 152 369 143T345 130Q330 144 301 162T237 200T166 243T102 286T59 326T49 363L51 366Z" />
<glyph unicode="&#x203a;" glyph-name="guilsinglright" horiz-adv-x="461" d="M47 148Q50 168 76 194T139 249T216 308T288 365T336 418T341 461L61 612Q58 615 53 624T48 638Q48 642 50 647T57 658T65 668T74 676L380 499Q404 483 401 456T377 395T320 326T246
256T169 193T104 145T63 119T61 122Q50 122 49 132T47 148Z" />
</font>
</defs>
</svg>
